<svg width="33" height="26" viewBox="0 0 33 26" fill="none" xmlns="http://www.w3.org/2000/svg">
<path fill-rule="evenodd" clip-rule="evenodd" d="M32.25 13.0002C32.25 7.19332 27.6734 2.48591 22.0278 2.48591H13.5833C12.9288 1.1312 11.5983 0.200195 10.0278 0.200195C8.09335 0.200195 6.47964 1.61259 6.10822 3.48947C6.11528 3.44699 6.0999 3.53149 6.10822 3.48947C6.0705 3.71642 6.02778 4.07647 6.02778 4.31448C6.02778 5.36817 6.41288 6.32935 7.04621 7.05723C7.77864 7.89901 8.84306 8.42877 10.0278 8.42877C11.5983 8.42877 12.9575 7.49777 13.612 6.14305H22.0278C29.3583 6.14305 30.3299 17.044 24.4702 19.4084C24.8924 20.0606 25.1385 20.8437 25.1385 21.6859C25.1385 22.1806 25.0536 22.6549 24.898 23.0942C29.1461 21.8182 32.25 17.782 32.25 13.0002ZM10.0278 6.6002C11.2551 6.6002 12.25 5.57685 12.25 4.31448C12.25 3.56678 11.901 2.90293 11.3613 2.48591C10.9899 2.19886 10.5281 2.02877 10.0278 2.02877C9.41906 2.02877 8.8675 2.28051 8.46615 2.6883C8.0583 3.10269 7.80556 3.67823 7.80556 4.31448C7.80556 5.57685 8.80048 6.6002 10.0278 6.6002Z" fill="#FD1669"/>
<path fill-rule="evenodd" clip-rule="evenodd" d="M0.25 13.0002C0.25 18.8071 4.82664 23.5145 10.4722 23.5145L17.5328 23.4693C18.1787 24.8485 19.5505 25.8002 21.1385 25.8002C22.8666 25.8002 24.3389 24.6729 24.898 23.0942C25.0536 22.6549 25.1385 22.1806 25.1385 21.6859C25.1385 20.8437 24.8924 20.0606 24.4702 19.4084C23.7534 18.3012 22.5288 17.5716 21.1385 17.5716C19.5679 17.5716 18.2088 18.5026 17.5542 19.8573H10.4718C3.73916 19.8573 2.37043 10.6621 6.73164 7.33031C6.84176 7.24619 6.94727 7.15492 7.04621 7.05723C6.41288 6.32935 6.02778 5.36817 6.02778 4.31448C6.02778 4.07647 6.0705 3.71642 6.10822 3.48947C5.9301 3.57877 5.76701 3.66231 5.60762 3.75051C2.44142 5.51591 0.283547 8.95106 0.250388 12.9077C0.250129 12.9385 0.25 12.9693 0.25 13.0002ZM21.1385 23.9716C22.3658 23.9716 23.3607 22.9483 23.3607 21.6859C23.3607 20.4235 22.3658 19.4002 21.1385 19.4002C19.9112 19.4002 18.9162 20.4235 18.9162 21.6859C18.9162 22.9483 19.9112 23.9716 21.1385 23.9716Z" fill="#005FF7"/>
</svg>
