<svg width="17" height="13" viewBox="0 0 17 13" fill="none" xmlns="http://www.w3.org/2000/svg">
<path fill-rule="evenodd" clip-rule="evenodd" d="M17 6.5C17 3.55119 14.5687 1.16071 11.5694 1.16071H7.08333C6.73561 0.472773 6.0288 0 5.19444 0C4.16678 0 3.3095 0.717229 3.11218 1.67033C3.11593 1.64876 3.10776 1.69168 3.11218 1.67033C3.09214 1.78558 3.06944 1.96842 3.06944 2.08929C3.06944 2.62436 3.27403 3.11246 3.61049 3.48209C3.99959 3.90955 4.56506 4.17857 5.19444 4.17857C6.0288 4.17857 6.75084 3.7058 7.09856 3.01786H11.5694C15.4638 3.01786 15.98 8.5535 12.867 9.75418C13.0913 10.0853 13.222 10.483 13.222 10.9107C13.222 11.1619 13.1769 11.4028 13.0942 11.6259C15.3511 10.9779 17 8.92825 17 6.5ZM5.19444 3.25C5.84645 3.25 6.375 2.73033 6.375 2.08929C6.375 1.70959 6.18957 1.37248 5.90289 1.16071C5.70556 1.01495 5.46026 0.928571 5.19444 0.928571C4.87106 0.928571 4.57805 1.05641 4.36483 1.26349C4.14816 1.47393 4.01389 1.76619 4.01389 2.08929C4.01389 2.73033 4.54244 3.25 5.19444 3.25Z" fill="#FD1669"/>
<path fill-rule="evenodd" clip-rule="evenodd" d="M0 6.5C0 9.44881 2.43134 11.8393 5.43056 11.8393L9.18147 11.8164C9.52463 12.5167 10.2534 13 11.097 13C12.0151 13 12.7972 12.4276 13.0942 11.6259C13.1769 11.4028 13.222 11.1619 13.222 10.9107C13.222 10.483 13.0913 10.0853 12.867 9.75418C12.4862 9.19191 11.8356 8.82143 11.097 8.82143C10.2626 8.82143 9.5406 9.2942 9.19288 9.98214H5.43033C1.85361 9.98214 1.12648 5.31266 3.44337 3.62076C3.50187 3.57804 3.55792 3.5317 3.61049 3.48209C3.27403 3.11246 3.06944 2.62436 3.06944 2.08929C3.06944 1.96842 3.09214 1.78558 3.11218 1.67033C3.01755 1.71568 2.93091 1.7581 2.84624 1.80289C1.16419 2.69939 0.017822 4.4438 0.000205875 6.45301C6.87182e-05 6.46866 0 6.48432 0 6.5ZM11.097 12.0714C11.749 12.0714 12.2775 11.5518 12.2775 10.9107C12.2775 10.2697 11.749 9.75 11.097 9.75C10.445 9.75 9.91644 10.2697 9.91644 10.9107C9.91644 11.5518 10.445 12.0714 11.097 12.0714Z" fill="#005FF7"/>
</svg>
