<svg width="23" height="23" viewBox="0 0 23 23" fill="none" xmlns="http://www.w3.org/2000/svg">
<path fill-rule="evenodd" clip-rule="evenodd" d="M14.2473 2.7263L11.4288 0L8.61033 2.7263L4.72827 2.17691L4.05033 6.03836L0.58667 7.87692L2.3088 11.4L0.58667 14.9219L4.05033 16.7604L4.72827 20.6219L8.61033 20.0737L11.4288 22.8L14.2473 20.0737L18.1293 20.6219L18.8073 16.7604L22.2709 14.9219L20.5488 11.4L22.2709 7.87692L18.8073 6.03836L18.1293 2.17691L14.2473 2.7263ZM5.64876 11.913L9.80612 16.0704L16.6983 8.54394L15.0647 7.03162L9.7285 12.8468L7.21565 10.334L5.64876 11.913Z" fill="url(#paint0_linear_263_542)"/>
<path fill-rule="evenodd" clip-rule="evenodd" d="M13.9768 3.55711L11.4288 1.09155L8.88074 3.55711L5.36978 3.05987L4.75733 6.55264L1.62476 8.21413L3.18195 11.4001L1.62476 14.586L4.75733 16.2475L5.36978 19.7403L8.88074 19.243L11.4288 21.7086L13.9768 19.243L17.4877 19.7403L18.1002 16.2475L21.2328 14.586L19.6756 11.4001L21.2328 8.21413L18.1002 6.55264L17.4877 3.05987L13.9768 3.55711ZM5.6475 11.9131L9.80608 16.0704L16.6982 8.544L15.0646 7.03168L9.72846 12.8469L7.21561 10.334L5.6475 11.9131Z" fill="url(#paint1_linear_263_542)"/>
<path fill-rule="evenodd" clip-rule="evenodd" d="M5.64744 11.9129L9.80601 16.0703L16.6581 8.58751L16.7042 8.54749L16.6982 10.2429L9.80601 17.7694L5.64744 13.6108L5.6438 11.9068L5.64986 11.9105L5.64744 11.9129Z" fill="#BE92B1"/>
<defs>
<linearGradient id="paint0_linear_263_542" x1="3.43788" y1="1.08543" x2="20.0188" y2="24.1437" gradientUnits="userSpaceOnUse">
<stop stop-color="#EAB4DA"/>
<stop offset="0.539" stop-color="#E9A8BF"/>
<stop offset="0.68" stop-color="#FECCEF"/>
<stop offset="1" stop-color="#EAB4DA"/>
</linearGradient>
<linearGradient id="paint1_linear_263_542" x1="4.58269" y1="2.17698" x2="17.9304" y2="21.2635" gradientUnits="userSpaceOnUse">
<stop stop-color="#FFE7EE" stop-opacity="0.28"/>
<stop offset="0.406" stop-color="#F4A3DC"/>
<stop offset="0.989" stop-color="#F9B3CC"/>
</linearGradient>
</defs>
</svg>
