<svg width="27" height="26" viewBox="0 0 27 26" fill="none" xmlns="http://www.w3.org/2000/svg">
<rect x="0.333252" width="26" height="26" rx="13" fill="#404BBB"/>
<g clip-path="url(#clip0_312_455)">
<path d="M13.6151 20.0182C17.2797 20.0182 20.2504 17.0475 20.2504 13.3829C20.2504 9.7183 17.2797 6.74756 13.6151 6.74756C9.95047 6.74756 6.97974 9.7183 6.97974 13.3829C6.97974 17.0475 9.95047 20.0182 13.6151 20.0182Z" stroke="white" stroke-width="0.956586"/>
<path fill-rule="evenodd" clip-rule="evenodd" d="M13.5441 6.89685C9.96214 6.89685 7.05835 9.80063 7.05835 13.3826C7.05835 16.9646 9.96214 19.8684 13.5441 19.8684H13.615V6.89685H13.5441ZM7.98108 12.9339C8.56941 12.2818 9.31846 11.748 10.1748 11.5708C11.0481 11.3901 11.9835 11.5909 12.897 12.3194L12.4198 12.9177C11.6668 12.3173 10.9597 12.1899 10.3299 12.3202C9.68327 12.454 9.06897 12.8705 8.5493 13.4465L7.98108 12.9339Z" fill="white"/>
<path fill-rule="evenodd" clip-rule="evenodd" d="M17.1293 11.5705C17.9857 11.7478 18.7348 12.2815 19.3231 12.9337L18.7549 13.4463C18.2352 12.8703 17.6209 12.4538 16.9743 12.32C16.3446 12.1896 15.6373 12.317 14.8843 12.9174L14.4072 12.3191C15.3207 11.5907 16.2561 11.3899 17.1293 11.5705Z" fill="white"/>
<path d="M9.67018 13.5859L13.6592 20.4951H5.68115L9.67018 13.5859Z" fill="white"/>
</g>
<defs>
<clipPath id="clip0_312_455">
<rect width="15.2481" height="14.8571" fill="white" transform="translate(5.70923 5.57141)"/>
</clipPath>
</defs>
</svg>
