<svg width="358" height="289" viewBox="0 0 358 289" fill="none" xmlns="http://www.w3.org/2000/svg">
<path d="M162.7 44.3623L185.135 0L210.956 31.2649L250.323 108.582L271.912 119.989L285.457 153.789L301.119 157.169L304.082 177.449L328.634 219.276L357.841 243.359L309.585 255.611L282.494 272.934H241.01L218.152 287.721H157.197L152.541 272.934H118.677L90.3158 252.654L56.0282 259.414L35.2864 248.429H0.152512L30.2068 194.771L53.4884 190.124L78.0401 136.044L99.6279 119.989L111.904 85.767L133.069 76.4719L141.535 54.5023L162.7 44.3623Z" fill="#FFE3FA"/>
<path d="M282.492 272.933H241.008L224.923 248.428V219.276L210.954 200.686L100.93 168.026L78.0257 136.401L213.161 119.99L250.321 108.582L271.909 119.99L285.455 153.789L301.117 157.169L304.08 177.449L328.632 219.276L357.839 243.359L309.583 255.611L282.492 272.933Z" fill="#FFD6F7"/>
<path d="M53.4881 190.124L78.0398 136.044L181.859 190.124L357.841 243.359L309.585 255.611L282.494 272.934H241.01L218.152 287.721H157.197L152.54 272.934H118.676L90.3155 252.654L56.0279 259.414L35.2861 248.429H0.152191L30.2065 194.771L53.4881 190.124Z" fill="#FC70F3"/>
<path d="M282.478 272.914H240.995L224.909 248.409V219.257L210.94 200.667L224.909 153.769L197.395 115.322L210.94 31.2449L250.307 108.562L271.896 119.969L285.441 153.769L301.104 157.149L304.067 177.429L328.618 219.257L357.825 243.339L309.569 255.592L282.478 272.914Z" fill="black" fill-opacity="0.06"/>
<path d="M174.963 111.513L154.644 86.1631L138.136 102.218L125.013 110.246L110.198 146.158L82.2598 171.93L75.4874 204.04L58.1319 212.067L35.2737 248.403L56.0154 259.387L90.3027 252.627L118.664 272.908H152.528L158.878 231.502L150.835 221.362L161.84 196.013L174.963 111.513Z" fill="black" fill-opacity="0.06"/>
<path d="M162.702 44.3623L185.137 0L210.958 31.2649L227.044 62.5298L228.737 93.3722L197.836 81.1198L163.972 97.597L154.659 86.1895L138.151 102.245L133.071 76.4719L141.537 54.5023L162.702 44.3623Z" fill="#E0EDF4"/>
<path d="M228.734 93.3722L197.833 81.1198L188.944 72.2472L193.177 52.3898L185.557 37.6024V0L211.379 31.2649L227.041 62.9523L228.734 93.3722Z" fill="#DCE8EF"/>
<path d="M282.478 272.131H240.995L224.909 247.627V218.474L210.94 199.884L224.909 152.987L197.395 114.54L240.995 143.692L250.307 187.209L244.804 206.221L261.313 242.557L282.478 254.809V272.131Z" fill="black" fill-opacity="0.05"/>
<path d="M35.2737 248.055L56.0154 259.04L73.5826 255.66V230.311L93.6889 217.636L102.155 191.441L92.4191 179.611L110.198 145.811L82.2598 171.583L75.4873 203.693L58.1319 211.72L35.2737 248.055Z" fill="black" fill-opacity="0.05"/>
<path d="M152.526 272.559H118.662L131.785 253.546L122.472 228.196L141.52 203.691L144.484 172.004L171.151 133.979L161.839 195.664L150.833 221.014L158.876 231.154L152.526 272.559Z" fill="black" fill-opacity="0.05"/>
<path d="M271.899 119.193L285.444 153.415L280.787 155.105L268.935 147.5L265.549 129.755L251.157 119.193L249.887 108.208L271.899 119.193Z" fill="black" fill-opacity="0.05"/>
<path d="M328.623 218.903L357.83 242.986L332.432 249.323V237.493H311.267L297.722 234.958L314.23 229.043L308.728 206.228L297.722 190.174L314.23 194.398L328.623 218.903Z" fill="black" fill-opacity="0.05"/>
</svg>
