<svg width="192" height="115" viewBox="0 0 192 115" fill="none" xmlns="http://www.w3.org/2000/svg">
<path fill-rule="evenodd" clip-rule="evenodd" d="M191.931 19.7058L191.933 19.7056C191.947 19.6188 191.961 19.532 191.961 19.4451C191.961 19.3583 191.947 19.2715 191.931 19.1847C191.917 19.0979 191.903 19.0105 191.903 18.9237C182.527 17.0119 175.117 9.59621 173.207 0.210772C173.12 0.210772 173.033 0.196289 172.946 0.1818C172.859 0.167311 172.772 0.152832 172.686 0.152832C172.599 0.152832 172.512 0.167311 172.425 0.1818C172.338 0.196289 172.252 0.210772 172.165 0.210772C170.255 9.59621 162.846 17.0119 153.468 18.9237C153.468 19.0105 153.454 19.0975 153.439 19.1843C153.425 19.2713 153.41 19.3582 153.41 19.4451C153.41 19.532 153.425 19.6189 153.439 19.7058C153.454 19.7928 153.468 19.8796 153.468 19.9666C162.846 21.8784 170.255 29.294 172.165 38.6796C172.252 38.6796 172.338 38.694 172.425 38.7085C172.512 38.7229 172.599 38.7374 172.686 38.7374C172.772 38.7374 172.859 38.7229 172.946 38.7085C173.033 38.694 173.12 38.6796 173.207 38.6796C175.117 29.294 182.527 21.8784 191.903 19.9666C191.903 19.8797 191.917 19.7926 191.931 19.7058ZM126.125 26.4605C144.098 26.4605 158.667 41.0432 158.667 59.0319C158.667 77.0206 144.098 91.6035 126.125 91.6035L54.531 91.6033C36.5583 91.6033 21.9885 77.0206 21.9885 59.0319C21.9885 41.0432 36.5583 26.4605 54.531 26.4605H126.125ZM30.7275 99.4465C30.7163 99.5135 30.7052 99.581 30.7052 99.648C23.4592 101.125 17.734 106.856 16.258 114.108C16.191 114.108 16.124 114.119 16.057 114.13C15.9899 114.142 15.9225 114.153 15.8554 114.153C15.7883 114.153 15.7212 114.142 15.6542 114.13C15.5872 114.119 15.5199 114.108 15.4529 114.108C13.9769 106.856 8.25164 101.125 1.00567 99.648C1.00567 99.581 0.994505 99.5138 0.983335 99.4468C0.97215 99.3797 0.960938 99.3123 0.960938 99.2451C0.960938 99.178 0.972107 99.1108 0.983291 99.0436C0.994461 98.9765 1.00567 98.9093 1.00567 98.8423C8.25164 97.3648 13.9769 91.6347 15.4529 84.3822C15.52 84.3822 15.5871 84.3709 15.6542 84.3599C15.7212 84.3487 15.7883 84.3374 15.8554 84.3374C15.9225 84.3374 15.9896 84.3487 16.0567 84.3599C16.1238 84.3709 16.1909 84.3822 16.258 84.3822C17.734 91.6347 23.4592 97.3648 30.7052 98.8423C30.7052 98.9095 30.7163 98.9765 30.7275 99.0436C30.7387 99.1108 30.7499 99.178 30.7499 99.2451C30.7499 99.3123 30.7387 99.3793 30.7275 99.4465Z" fill="url(#paint0_linear_889_701)"/>
<defs>
<linearGradient id="paint0_linear_889_701" x1="191.424" y1="0.935227" x2="-13.5213" y2="38.163" gradientUnits="userSpaceOnUse">
<stop stop-color="#FDC5EC"/>
<stop offset="1" stop-color="#FD1669"/>
</linearGradient>
</defs>
</svg>
