<svg width="33" height="32" viewBox="0 0 33 32" fill="none" xmlns="http://www.w3.org/2000/svg">
<g clip-path="url(#clip0_989_773)">
<path d="M17.341 31.1161C25.0316 31.1161 31.2661 24.7176 31.2661 16.8247C31.2661 8.93171 25.0316 2.5332 17.341 2.5332C9.65046 2.5332 3.41602 8.93171 3.41602 16.8247C3.41602 24.7176 9.65046 31.1161 17.341 31.1161Z" stroke="#404BBB" stroke-width="0.761133"/>
<path fill-rule="evenodd" clip-rule="evenodd" d="M17.1933 2.85449C9.67599 2.85449 3.58203 9.1088 3.58203 16.8239C3.58203 24.539 9.67599 30.7933 17.1933 30.7933H17.342V2.85449H17.1933ZM5.5185 15.8575C6.75317 14.4528 8.32515 13.3031 10.1224 12.9214C11.9549 12.5323 13.918 12.9648 15.835 14.5338L14.8338 15.8225C13.2535 14.5292 11.7694 14.2548 10.4478 14.5355C9.09075 14.8237 7.80155 15.7208 6.71096 16.9615L5.5185 15.8575Z" fill="#404BBB"/>
<path fill-rule="evenodd" clip-rule="evenodd" d="M24.7186 12.9209C26.5158 13.3026 28.0877 14.4523 29.3224 15.857L28.13 16.9611C27.0394 15.7203 25.7502 14.8233 24.3931 14.5351C23.0716 14.2543 21.5874 14.5287 20.0071 15.822L19.0059 14.5333C20.923 12.9643 22.886 12.5318 24.7186 12.9209Z" fill="#404BBB"/>
<path d="M9.06286 17.2622L17.4342 32.1436H0.691406L9.06286 17.2622Z" fill="#404BBB"/>
</g>
<defs>
<clipPath id="clip0_989_773">
<rect width="32" height="32" fill="white" transform="translate(0.75)"/>
</clipPath>
</defs>
</svg>
