<svg width="36" height="28" viewBox="0 0 36 28" fill="none" xmlns="http://www.w3.org/2000/svg">
<path d="M16.4053 4.31041L18.6006 0L21.1272 3.03781L24.9793 10.5502L27.0917 11.6586L28.4172 14.9428L29.9497 15.2711L30.2396 17.2416L32.642 21.3057L35.5 23.6456L30.7781 24.8361L28.1272 26.5193H24.068L21.8313 27.9561H15.8669L15.4113 26.5193H12.0976L9.32251 24.5488L5.96746 25.2056L3.93787 24.1383H0.5L3.44083 18.9247L5.71894 18.4732L8.12133 13.2186L10.2337 11.6586L11.4349 8.33344L13.5059 7.43029L14.3343 5.29565L16.4053 4.31041Z" fill="#FFE3FA"/>
<path d="M28.1262 26.5193H24.067L22.4931 24.1383V21.3058L21.1262 19.4995L10.3603 16.3261L8.11914 13.2533L21.3422 11.6587L24.9783 10.5503L27.0907 11.6587L28.4162 14.9428L29.9487 15.2712L30.2387 17.2416L32.641 21.3058L35.499 23.6457L30.7771 24.8362L28.1262 26.5193Z" fill="#FFD6F7"/>
<path d="M5.71894 18.4734L8.12133 13.2188L18.2801 18.4734L35.5 23.6458L30.7781 24.8363L28.1272 26.5195H24.068L21.8313 27.9563H15.8669L15.4113 26.5195H12.0976L9.32251 24.549L5.96746 25.2058L3.93787 24.1385H0.5L3.44083 18.9249L5.71894 18.4734Z" fill="#FC70F3"/>
<path d="M28.1262 26.5171H24.0671L22.4931 24.1361V21.3036L21.1262 19.4973L22.4931 14.9406L19.8008 11.2049L21.1262 3.03564L24.9783 10.548L27.0907 11.6564L28.4161 14.9406L29.9487 15.269L30.2387 17.2394L32.641 21.3036L35.499 23.6435L30.7771 24.834L28.1262 26.5171Z" fill="black" fill-opacity="0.06"/>
<path d="M17.6042 10.8352L15.616 8.37207L14.0006 9.932L12.7166 10.712L11.2669 14.2014L8.53316 16.7055L7.87047 19.8254L6.17223 20.6054L3.93555 24.1359L5.96514 25.2032L9.32016 24.5464L12.0953 26.5169H15.4089L16.0302 22.4938L15.2432 21.5085L16.3202 19.0454L17.6042 10.8352Z" fill="black" fill-opacity="0.06"/>
<path d="M16.4053 4.31041L18.6006 0L21.1272 3.03781L22.7011 6.07563L22.8668 9.07239L19.8432 7.8819L16.5296 9.48288L15.6183 8.37449L14.0029 9.93449L13.5059 7.43029L14.3343 5.29565L16.4053 4.31041Z" fill="#E0EDF4"/>
<path d="M22.8675 9.07239L19.8438 7.8819L18.9739 7.0198L19.3882 5.09039L18.6426 3.65359V0L21.1692 3.03781L22.7018 6.11667L22.8675 9.07239Z" fill="#DCE8EF"/>
<path d="M28.1262 26.4411H24.0671L22.4931 24.0601V21.2275L21.1262 19.4213L22.4931 14.8646L19.8008 11.1289L24.0671 13.9614L24.9783 18.1898L24.4398 20.037L26.0552 23.5675L28.1262 24.758V26.4411Z" fill="black" fill-opacity="0.05"/>
<path d="M3.93555 24.1019L5.96514 25.1693L7.68409 24.8409V22.3778L9.6515 21.1462L10.4799 18.6011L9.52725 17.4516L11.2669 14.1675L8.53316 16.6716L7.87047 19.7915L6.17223 20.5715L3.93555 24.1019Z" fill="black" fill-opacity="0.05"/>
<path d="M15.4093 26.483H12.0957L13.3797 24.6356L12.4685 22.1726L14.3323 19.7916L14.6223 16.7128L17.2318 13.0181L16.3205 19.0116L15.2436 21.4747L16.0306 22.46L15.4093 26.483Z" fill="black" fill-opacity="0.05"/>
<path d="M27.0894 11.581L28.4148 14.9062L27.9592 15.0704L26.7994 14.3314L26.4681 12.6073L25.0598 11.581L24.9355 10.5137L27.0894 11.581Z" fill="black" fill-opacity="0.05"/>
<path d="M32.6409 21.2695L35.4988 23.6094L33.0136 24.2252V23.0758H30.9426L29.6172 22.8295L31.2325 22.2547L30.6941 20.038L29.6172 18.478L31.2325 18.8885L32.6409 21.2695Z" fill="black" fill-opacity="0.05"/>
</svg>
