<svg width="171" height="167" viewBox="0 0 171 167" fill="none" xmlns="http://www.w3.org/2000/svg">
<path d="M117.985 103.569L126.526 112.644C150.283 113.712 162.708 131.936 158.558 165.229L169.502 166.831C177.777 123.855 150.55 95.8276 117.985 103.569Z" fill="url(#paint0_linear_819_855)"/>
<path fill-rule="evenodd" clip-rule="evenodd" d="M72.8682 85.1495L80.876 78.2094C62.7284 62.7276 73.9387 47.2456 85.1469 47.2457C99.566 47.7795 105.436 64.3291 89.421 78.2094L57.3918 105.17C14.4163 93.6921 -6.13719 128.126 1.6037 166.297L12.0141 165.229C4.27269 122.254 34.3453 107.394 49.3813 113.712C27.3843 145.255 42.8869 161.911 53.3877 166.297C56.8526 167.083 58.5087 167.109 61.6605 166.03C86.4298 156.207 77.4989 128.66 69.9373 116.114L61.6605 123.855C78.7459 145.209 55.4232 169.247 49.3813 147.612C44.3124 129.461 71.5363 104.102 85.1497 96.3614L103.568 112.11C96.9479 120.438 94.0473 129.461 93.4245 132.931C89.1536 183.38 142.272 172.703 130.794 131.596C127.378 116.434 104.813 96.9837 93.9573 89.1535C125.189 60.593 103.034 34.9668 85.1469 36.0347C60.1022 37.5298 51.7828 68.333 72.8682 85.1495ZM121.188 141.472C121.989 158.556 104.905 162.293 103.568 141.472C103.925 136.312 105.973 124.763 111.311 119.851C120.28 129.461 121.633 138.269 121.188 141.472Z" fill="url(#paint1_linear_819_855)"/>
<circle cx="37.3705" cy="81.6806" r="15.4819" fill="#FD1669"/>
<circle cx="133.999" cy="81.6806" r="15.4819" fill="#D9D9D9"/>
<circle cx="85.4174" cy="15.4819" r="15.4819" fill="#FD1669"/>
<circle cx="133.999" cy="81.6806" r="15.4819" fill="#FD1669"/>
<defs>
<linearGradient id="paint0_linear_819_855" x1="132.525" y1="114.52" x2="-55.9788" y2="-41.1721" gradientUnits="userSpaceOnUse">
<stop stop-color="#F8DAD3"/>
<stop offset="1" stop-color="#CC99AE"/>
</linearGradient>
<linearGradient id="paint1_linear_819_855" x1="132.525" y1="114.52" x2="-55.9788" y2="-41.1721" gradientUnits="userSpaceOnUse">
<stop stop-color="#F8DAD3"/>
<stop offset="1" stop-color="#CC99AE"/>
</linearGradient>
</defs>
</svg>
