<svg width="43" height="42" viewBox="0 0 43 42" fill="none" xmlns="http://www.w3.org/2000/svg">
<path d="M29.4227 25.5903L31.5057 27.8035C37.2991 28.0639 40.3291 32.5082 39.317 40.6271L41.9859 41.0177C44.0039 30.5375 37.3642 23.7025 29.4227 25.5903Z" fill="url(#paint0_linear_787_685)"/>
<path fill-rule="evenodd" clip-rule="evenodd" d="M18.4204 21.0985L20.3732 19.4061C15.9476 15.6306 18.6814 11.8551 21.4147 11.8551C24.931 11.9853 26.3626 16.0212 22.457 19.4061L14.6462 25.9808C4.16601 23.1818 -0.846253 31.579 1.04148 40.8875L3.58021 40.6271C1.69235 30.1469 9.02599 26.5233 12.6928 28.0639C7.32847 35.756 11.109 39.818 13.6698 40.8875C14.5147 41.0792 14.9186 41.0855 15.6872 40.8224C21.7276 38.4269 19.5497 31.7092 17.7056 28.6497L15.6872 30.5375C19.8538 35.745 14.1662 41.6071 12.6928 36.3309C11.4566 31.9044 18.0956 25.7205 21.4154 23.8327L25.9069 27.6733C24.2926 29.7042 23.5852 31.9044 23.4333 32.7507C22.3918 45.0535 35.3456 42.4498 32.5466 32.4252C31.7134 28.7278 26.2105 23.9845 23.5633 22.075C31.1796 15.1101 25.7767 8.86074 21.4147 9.12114C15.3072 9.48575 13.2784 16.9976 18.4204 21.0985ZM30.2038 34.8337C30.3991 38.9997 26.2331 39.9111 25.9069 34.8337C25.9939 33.5752 26.4934 30.7588 27.7953 29.561C29.9825 31.9044 30.3123 34.0526 30.2038 34.8337Z" fill="url(#paint1_linear_787_685)"/>
<circle cx="9.76376" cy="20.2525" r="3.77548" fill="#FD1669"/>
<circle cx="33.3282" cy="20.2525" r="3.77548" fill="#D9D9D9"/>
<circle cx="21.4806" cy="4.10898" r="3.77548" fill="#FD1669"/>
<circle cx="33.3282" cy="20.2525" r="3.77548" fill="#FD1669"/>
<defs>
<linearGradient id="paint0_linear_787_685" x1="32.9686" y1="28.261" x2="-13.0009" y2="-9.70688" gradientUnits="userSpaceOnUse">
<stop stop-color="#F8DAD3"/>
<stop offset="1" stop-color="#CC99AE"/>
</linearGradient>
<linearGradient id="paint1_linear_787_685" x1="32.9686" y1="28.261" x2="-13.0009" y2="-9.70688" gradientUnits="userSpaceOnUse">
<stop stop-color="#F8DAD3"/>
<stop offset="1" stop-color="#CC99AE"/>
</linearGradient>
</defs>
</svg>
