<svg width="33" height="32" viewBox="0 0 33 32" fill="none" xmlns="http://www.w3.org/2000/svg">
<path d="M10.8738 23.3264L10.0655 23.0712C9.58455 22.9194 9.33964 22.3752 9.5346 21.9017C10.1728 20.3518 10.6931 18.9671 11.1421 17.597C10.7881 17.579 10.4248 17.5587 10.0508 17.536C9.63882 17.5111 9.30457 17.1847 9.26149 16.766L9.16214 15.8008C9.10691 15.2642 9.54329 14.8083 10.071 14.8465C10.7179 14.8934 11.3329 14.9334 11.9231 14.9663C12.371 13.2894 12.7603 11.4983 13.1691 9.34085C13.2694 8.81113 13.8142 8.49923 14.3081 8.69251L15.1965 9.04021C15.5818 9.191 15.8044 9.60477 15.7214 10.0171C15.3372 11.9263 14.9682 13.5448 14.5594 15.0669C15.818 15.0892 16.9993 15.0682 18.1982 14.9994C17.7965 13.4969 17.4328 11.8981 17.0542 10.0171C16.9712 9.60477 17.1938 9.191 17.5791 9.04021L18.4676 8.69251C18.9615 8.49923 19.5062 8.81113 19.6066 9.34085C20.0002 11.4187 20.3759 13.1568 20.8032 14.7802C21.4763 14.7069 22.1731 14.6194 22.9077 14.517C23.4065 14.4475 23.8586 14.8296 23.8779 15.3427L23.9103 16.205C23.9271 16.6509 23.6066 17.037 23.1725 17.0927C22.6043 17.1658 22.0603 17.232 21.5345 17.2915C22.0058 18.762 22.5553 20.2365 23.241 21.9017C23.436 22.3752 23.1911 22.9194 22.7101 23.0712L21.9019 23.3264C21.4839 23.4583 21.0353 23.2424 20.8702 22.8293C20.0863 20.8684 19.4695 19.1974 18.9417 17.5406C17.2104 17.6729 15.584 17.7209 13.7861 17.6902C13.2688 19.2982 12.6658 20.9274 11.9055 22.8293C11.7403 23.2424 11.2917 23.4583 10.8738 23.3264Z" fill="#111111"/>
<path d="M29.9913 15.1873C32.9681 23.655 25.8958 29.8842 21.9876 31.9404C28.1659 26.8233 25.7086 19.1127 25.498 15.1873C25.3175 11.8226 28.4467 11.7525 29.9913 15.1873Z" fill="#FCE835"/>
<path d="M5.33383 25.6878C-2.11682 20.668 -0.166594 11.4554 1.73985 7.47662C-0.158023 15.2641 6.42321 19.9861 8.93895 23.0101C11.0953 25.6021 8.62649 27.5231 5.33383 25.6878Z" fill="#FCE835"/>
<path d="M3.81286 9.2869C6.2235 0.641524 15.5935 -0.427847 19.9772 0.11814C11.9777 0.785954 9.57477 8.51366 7.49818 11.8535C5.71824 14.7162 3.11151 12.9863 3.81286 9.2869Z" fill="#FCE835"/>
<path d="M21.0357 29.8753C13.6224 34.95 5.75675 29.7548 2.75058 26.5229C9.3079 31.146 16.1244 26.7692 19.8655 25.5439C23.0722 24.4937 23.9549 27.4919 21.0357 29.8753Z" fill="#FCE835"/>
<path d="M19.4569 2.4219C28.4452 2.38559 32.0254 11.0968 32.6919 15.457C29.8717 7.95323 21.7699 7.74724 17.9859 6.6609C14.7425 5.72975 15.7006 2.75464 19.4569 2.4219Z" fill="#FCE835"/>
</svg>
