<svg width="14" height="14" viewBox="0 0 14 14" fill="none" xmlns="http://www.w3.org/2000/svg">
<g clip-path="url(#clip0_1540_2049)">
<path d="M1.43945 4.25626V9.74678C1.43945 10.0951 1.62618 10.4202 1.93294 10.5927L6.70773 13.3364C7.01116 13.5122 7.38794 13.5122 7.69137 13.3364L12.4695 10.5927C12.7729 10.4169 12.963 10.0951 12.963 9.74678V4.25626C12.963 3.90792 12.7763 3.5828 12.4695 3.40697L7.69137 0.663366C7.38794 0.487537 7.01116 0.487537 6.70773 0.663366L1.9296 3.40697C1.62951 3.5828 1.43945 3.9046 1.43945 4.25626Z" fill="#213147"/>
<path d="M8.24347 8.06486L7.55993 9.92268C7.53992 9.97244 7.53992 10.0322 7.55993 10.0819L8.73028 13.28L10.0874 12.5004L8.4602 8.06154C8.42352 7.96201 8.28015 7.96201 8.24347 8.06486Z" fill="#12AAFF"/>
<path d="M9.60807 4.93651C9.57139 4.83366 9.42801 4.83366 9.388 4.93651L8.70446 6.79433C8.68445 6.84741 8.68445 6.90381 8.70446 6.95357L10.625 12.192L11.9821 11.4123L9.60807 4.93651Z" fill="#12AAFF"/>
<path d="M7.20204 0.865877C7.23538 0.865877 7.26873 0.875829 7.29874 0.892417L12.467 3.86161C12.527 3.89479 12.5637 3.95782 12.5637 4.02749V9.96588C12.5637 10.0355 12.527 10.0986 12.467 10.1318L7.29874 13.1043C7.26873 13.1209 7.23538 13.1308 7.20204 13.1308C7.1687 13.1308 7.13535 13.1209 7.10534 13.1043L1.93709 10.1351C1.87708 10.1019 1.8404 10.0389 1.8404 9.96919V4.02749C1.8404 3.95782 1.87708 3.89479 1.93709 3.86161L7.10534 0.892417C7.13535 0.875829 7.1687 0.865877 7.20204 0.865877ZM7.20204 0C7.01865 0 6.83193 0.049763 6.66854 0.142654L1.50029 3.11185C1.17353 3.30095 0.966797 3.64929 0.966797 4.02749V9.96588C0.966797 10.3441 1.17019 10.6957 1.50029 10.8848L6.66854 13.854C6.83193 13.9502 7.01532 13.9967 7.20204 13.9967C7.38876 13.9967 7.57215 13.9469 7.73554 13.854L12.9038 10.8848C13.2339 10.6957 13.4373 10.3474 13.4373 9.96588V4.02749C13.4373 3.64929 13.2339 3.29763 12.9038 3.10853L7.73554 0.142654C7.56882 0.049763 7.38543 0 7.20204 0Z" fill="#9DCCED"/>
<path d="M3.7832 12.1986L4.26002 10.9048L5.21364 11.6944L4.32337 12.5072L3.7832 12.1986Z" fill="#213147"/>
<path d="M6.76573 3.6062H5.45533C5.35863 3.6062 5.2686 3.66592 5.23526 3.75881L2.42773 11.4223L3.78482 12.2019L6.8791 3.76213C6.90577 3.68582 6.84909 3.6062 6.76573 3.6062Z" fill="white"/>
<path d="M9.059 3.6062H7.7486C7.6519 3.6062 7.56188 3.66592 7.52853 3.75881L4.32422 12.5071L5.6813 13.2868L9.16904 3.76213C9.19905 3.68582 9.13903 3.6062 9.059 3.6062Z" fill="white"/>
</g>
<defs>
<clipPath id="clip0_1540_2049">
<rect width="12.4672" height="14" fill="white" transform="translate(0.966797)"/>
</clipPath>
</defs>
</svg>
