<svg width="35" height="38" viewBox="0 0 35 38" fill="none" xmlns="http://www.w3.org/2000/svg">
<path d="M31.6983 7.19136L20.6134 0.845949C18.6505 -0.281983 16.2239 -0.281983 14.261 0.845949L3.17618 7.19136C1.2133 8.31929 0 10.3987 0 12.6483V25.3454C0 27.595 1.2133 29.6744 3.17618 30.8023L14.261 37.154C16.2239 38.282 18.6505 38.282 20.6134 37.154L31.6983 30.8023C33.6612 29.6744 34.8745 27.595 34.8745 25.3454V12.6483C34.8745 10.3987 33.6675 8.31929 31.6983 7.19136Z" fill="white"/>
<path d="M14.636 19.8543C14.636 20.5795 14.4794 21.2362 14.1661 21.8242C13.8626 22.4024 13.4026 22.8631 12.7859 23.2061C12.1691 23.5393 11.3958 23.7059 10.4659 23.7059C9.13454 23.7059 8.11648 23.3531 7.41167 22.6474C6.71665 21.932 6.36914 20.9911 6.36914 19.8249V14.2519C6.36914 13.595 6.90164 13.0625 7.55851 13.0625C8.21538 13.0625 8.74788 13.595 8.74788 14.2519V19.4868C8.74788 20.3492 8.89471 20.9568 9.18838 21.3097C9.49184 21.6625 9.93235 21.8389 10.5099 21.8389C10.921 21.8389 11.2539 21.7556 11.5084 21.589C11.7629 21.4224 11.9489 21.1627 12.0664 20.8098C12.1936 20.457 12.2572 20.0111 12.2572 19.4721V14.2519C12.2572 13.595 12.7897 13.0625 13.4466 13.0625C14.1035 13.0625 14.636 13.595 14.636 14.2519V19.8543Z" fill="#0F0F0F"/>
<path d="M20.1561 13.0625C21.4189 13.0625 22.3488 13.3565 22.9459 13.9445C23.5529 14.5228 23.8563 15.3215 23.8563 16.3408C23.8563 16.8014 23.7927 17.2424 23.6654 17.6639C23.5382 18.0755 23.3277 18.4479 23.034 18.7811C22.7404 19.1045 22.3488 19.3594 21.8594 19.5456C21.3797 19.7318 20.7875 19.8249 20.0827 19.8249H19.2604V22.3695C19.2604 23.0264 18.7279 23.5589 18.071 23.5589C17.4141 23.5589 16.8816 23.0264 16.8816 22.3695V15.2616C16.8816 14.0471 17.8662 13.0625 19.0807 13.0625H20.1561ZM20.0827 14.8854H19.2604V18.002H19.8624C20.1757 18.002 20.4546 17.9481 20.6994 17.8403C20.9441 17.7325 21.135 17.561 21.272 17.3257C21.4091 17.0905 21.4776 16.7867 21.4776 16.4143C21.4776 15.8949 21.3601 15.5126 21.1252 15.2676C20.9 15.0128 20.5525 14.8854 20.0827 14.8854Z" fill="#0F0F0F"/>
<path d="M27.44 19.1142C27.413 19.6524 26.9688 20.0748 26.43 20.0748C25.8912 20.0748 25.447 19.6524 25.4199 19.1142L25.1817 14.375C25.1459 13.661 25.7151 13.0625 26.43 13.0625C27.1448 13.0625 27.7141 13.661 27.6782 14.375L27.44 19.1142ZM25.1158 22.5298C25.1158 22.079 25.243 21.7654 25.4976 21.589C25.7521 21.4028 26.0604 21.3097 26.4226 21.3097C26.775 21.3097 27.0736 21.4028 27.3183 21.589C27.5728 21.7654 27.7001 22.079 27.7001 22.5298C27.7001 22.9611 27.5728 23.2747 27.3183 23.4707C27.0736 23.6569 26.775 23.75 26.4226 23.75C26.0604 23.75 25.7521 23.6569 25.4976 23.4707C25.243 23.2747 25.1158 22.9611 25.1158 22.5298Z" fill="#0F0F0F"/>
</svg>
