<svg width="51" height="50" viewBox="0 0 51 50" fill="none" xmlns="http://www.w3.org/2000/svg">
<rect x="0.636719" width="50" height="50" rx="10.9649" fill="#FFF1F8"/>
<path d="M39.6983 13.1914L28.6134 6.84595C26.6505 5.71802 24.2239 5.71802 22.261 6.84595L11.1762 13.1914C9.2133 14.3193 8 16.3987 8 18.6483V31.3454C8 33.595 9.2133 35.6744 11.1762 36.8023L22.261 43.154C24.2239 44.282 26.6505 44.282 28.6134 43.154L39.6983 36.8023C41.6612 35.6744 42.8745 33.595 42.8745 31.3454V18.6483C42.8745 16.3987 41.6675 14.3193 39.6983 13.1914Z" fill="white"/>
<path d="M22.636 25.8543C22.636 26.5795 22.4794 27.2362 22.1661 27.8242C21.8626 28.4024 21.4026 28.8631 20.7859 29.2061C20.1691 29.5393 19.3958 29.7059 18.4659 29.7059C17.1345 29.7059 16.1165 29.3531 15.4117 28.6474C14.7167 27.932 14.3691 26.9911 14.3691 25.8249V20.2519C14.3691 19.595 14.9016 19.0625 15.5585 19.0625V19.0625C16.2154 19.0625 16.7479 19.595 16.7479 20.2519V25.4868C16.7479 26.3492 16.8947 26.9568 17.1884 27.3097C17.4918 27.6625 17.9323 27.8389 18.5099 27.8389C18.921 27.8389 19.2539 27.7556 19.5084 27.589C19.7629 27.4224 19.9489 27.1627 20.0664 26.8098C20.1936 26.457 20.2572 26.0111 20.2572 25.4721V20.2519C20.2572 19.595 20.7897 19.0625 21.4466 19.0625V19.0625C22.1035 19.0625 22.636 19.595 22.636 20.2519V25.8543Z" fill="#0F0F0F"/>
<path d="M28.1561 19.0625C29.4189 19.0625 30.3488 19.3565 30.9459 19.9445C31.5529 20.5228 31.8563 21.3215 31.8563 22.3408C31.8563 22.8014 31.7927 23.2424 31.6654 23.6639C31.5382 24.0755 31.3277 24.4479 31.034 24.7811C30.7404 25.1045 30.3488 25.3594 29.8594 25.5456C29.3797 25.7318 28.7875 25.8249 28.0827 25.8249H27.2604V28.3695C27.2604 29.0264 26.7279 29.5589 26.071 29.5589V29.5589C25.4141 29.5589 24.8816 29.0264 24.8816 28.3695V21.2616C24.8816 20.0471 25.8662 19.0625 27.0807 19.0625H28.1561ZM28.0827 20.8854H27.2604V24.002H27.8624C28.1757 24.002 28.4546 23.9481 28.6994 23.8403C28.9441 23.7325 29.135 23.561 29.272 23.3257C29.4091 23.0905 29.4776 22.7867 29.4776 22.4143C29.4776 21.8949 29.3601 21.5126 29.1252 21.2676C28.9 21.0128 28.5525 20.8854 28.0827 20.8854Z" fill="#0F0F0F"/>
<path d="M35.44 25.1142C35.413 25.6524 34.9688 26.0748 34.43 26.0748V26.0748C33.8912 26.0748 33.447 25.6524 33.4199 25.1142L33.1817 20.375C33.1459 19.661 33.7151 19.0625 34.43 19.0625V19.0625C35.1448 19.0625 35.7141 19.661 35.6782 20.375L35.44 25.1142ZM33.1158 28.5298C33.1158 28.079 33.243 27.7654 33.4976 27.589C33.7521 27.4028 34.0604 27.3097 34.4226 27.3097C34.775 27.3097 35.0736 27.4028 35.3183 27.589C35.5728 27.7654 35.7001 28.079 35.7001 28.5298C35.7001 28.9611 35.5728 29.2747 35.3183 29.4707C35.0736 29.6569 34.775 29.75 34.4226 29.75C34.0604 29.75 33.7521 29.6569 33.4976 29.4707C33.243 29.2747 33.1158 28.9611 33.1158 28.5298Z" fill="#0F0F0F"/>
</svg>
