<svg width="30" height="32" viewBox="0 0 30 32" fill="none" xmlns="http://www.w3.org/2000/svg">
<path d="M26.6933 6.05588L17.3587 0.712378C15.7057 -0.237459 13.6623 -0.237459 12.0093 0.712378L2.67468 6.05588C1.02173 7.00572 0 8.75682 0 10.6512V21.3435C0 23.2379 1.02173 24.989 2.67468 25.9388L12.0093 31.2876C13.6623 32.2375 15.7057 32.2375 17.3587 31.2876L26.6933 25.9388C28.3462 24.989 29.368 23.2379 29.368 21.3435V10.6512C29.368 8.75682 28.3516 7.00572 26.6933 6.05588Z" fill="white"/>
<path d="M12.6566 17.2535C12.6566 17.8692 12.5231 18.4267 12.2561 18.9259C11.9975 19.4168 11.6054 19.8079 11.0799 20.0991C10.5543 20.382 9.89521 20.5235 9.10267 20.5235C7.96809 20.5235 7.10047 20.2239 6.49981 19.6248C5.90749 19.0174 5.61133 18.2187 5.61133 17.2285V11.4873H7.63856V16.9414C7.63856 17.6737 7.7637 18.1895 8.01398 18.4891C8.27259 18.7886 8.64801 18.9384 9.14022 18.9384C9.4906 18.9384 9.77425 18.8677 9.99115 18.7262C10.2081 18.5848 10.3666 18.3643 10.4667 18.0647C10.5751 17.7652 10.6294 17.3866 10.6294 16.929V11.4873H12.6566V17.2535Z" fill="#0F0F0F"/>
<path d="M17.361 11.4873C18.4372 11.4873 19.2297 11.7369 19.7386 12.2362C20.2558 12.7271 20.5145 13.4052 20.5145 14.2705C20.5145 14.6616 20.4602 15.036 20.3518 15.3938C20.2433 15.7433 20.064 16.0595 19.8137 16.3424C19.5634 16.6169 19.2297 16.8333 18.8126 16.9914C18.4038 17.1495 17.8991 17.2285 17.2984 17.2285H16.5976V20.3986H14.5704V11.4873H17.361ZM17.2984 13.0349H16.5976V15.6809H17.1107C17.3777 15.6809 17.6154 15.6351 17.824 15.5436C18.0326 15.4521 18.1952 15.3065 18.312 15.1068C18.4288 14.9071 18.4872 14.6491 18.4872 14.3329C18.4872 13.892 18.3871 13.5675 18.1869 13.3594C17.995 13.1431 17.6989 13.0349 17.2984 13.0349Z" fill="#0F0F0F"/>
<path d="M23.5275 17.4407H21.8881L21.5878 11.4873H23.8278L23.5275 17.4407ZM21.5878 19.525C21.5878 19.1422 21.6963 18.876 21.9132 18.7262C22.1301 18.5681 22.3929 18.4891 22.7015 18.4891C23.0019 18.4891 23.2563 18.5681 23.4649 18.7262C23.6818 18.876 23.7902 19.1422 23.7902 19.525C23.7902 19.8911 23.6818 20.1574 23.4649 20.3238C23.2563 20.4819 23.0019 20.5609 22.7015 20.5609C22.3929 20.5609 22.1301 20.4819 21.9132 20.3238C21.6963 20.1574 21.5878 19.8911 21.5878 19.525Z" fill="#0F0F0F"/>
</svg>
