<svg width="118" height="118" viewBox="0 0 118 118" fill="none" xmlns="http://www.w3.org/2000/svg">
<g clip-path="url(#clip0_912_707)">
<mask id="mask0_912_707" style="mask-type:luminance" maskUnits="userSpaceOnUse" x="0" y="0" width="118" height="118">
<path d="M118 0H0V118H118V0Z" fill="white"/>
</mask>
<g mask="url(#mask0_912_707)">
<path d="M118 59C118 26.4152 91.5848 0 59 0C26.4152 0 0 26.4152 0 59C0 91.5848 26.4152 118 59 118C91.5848 118 118 91.5848 118 59Z" fill="white"/>
<path d="M77.9247 66.564C81.6828 66.564 84.7291 69.6102 84.7291 73.3684V76.1471C84.7291 77.882 84.1869 79.5734 83.1781 80.9848C78.5008 87.5302 70.8632 90.7725 60.5149 90.7725C50.1641 90.7725 42.5304 87.5287 37.8646 80.98C36.8601 79.5703 36.3203 77.8826 36.3203 76.1517V73.3684C36.3203 69.6102 39.3668 66.564 43.1247 66.564H77.9247ZM60.5149 30.2705C68.8699 30.2705 75.6431 37.0437 75.6431 45.3988C75.6431 53.7538 68.8699 60.527 60.5149 60.527C52.1596 60.527 45.3867 53.7538 45.3867 45.3988C45.3867 37.0437 52.1596 30.2705 60.5149 30.2705Z" fill="#7D86C1"/>
</g>
</g>
<defs>
<clipPath id="clip0_912_707">
<rect width="118" height="118" fill="white"/>
</clipPath>
</defs>
</svg>
