<svg width="51" height="50" viewBox="0 0 51 50" fill="none" xmlns="http://www.w3.org/2000/svg">
<rect x="0.636719" width="50" height="50" rx="10.9649" fill="#FFF1F8"/>
<path d="M37.33 15.0559L27.9954 9.71238C26.3424 8.76254 24.299 8.76254 22.646 9.71238L13.3114 15.0559C11.6584 16.0057 10.6367 17.7568 10.6367 19.6512V30.3435C10.6367 32.2379 11.6584 33.989 13.3114 34.9388L22.646 40.2876C24.299 41.2375 26.3424 41.2375 27.9954 40.2876L37.33 34.9388C38.983 33.989 40.0047 32.2379 40.0047 30.3435V19.6512C40.0047 17.7568 38.9883 16.0057 37.33 15.0559Z" fill="white"/>
<path d="M22.9615 25.7194C22.9615 26.3301 22.8297 26.8831 22.5659 27.3783C22.3103 27.8652 21.9229 28.2531 21.4035 28.542C20.8842 28.8226 20.233 28.9629 19.4499 28.9629C18.3288 28.9629 17.4714 28.6657 16.8779 28.0715C16.2926 27.4691 16 26.6768 16 25.6946V21.0016C16 20.4484 16.4484 20 17.0016 20V20C17.5547 20 18.0031 20.4484 18.0031 21.0016V25.4099C18.0031 26.1362 18.1268 26.6479 18.3741 26.945C18.6296 27.2421 19.0006 27.3906 19.487 27.3906C19.8332 27.3906 20.1135 27.3205 20.3278 27.1802C20.5421 27.0399 20.6987 26.8212 20.7977 26.5241C20.9048 26.227 20.9584 25.8514 20.9584 25.3975V21.0016C20.9584 20.4484 21.4068 20 21.96 20V20C22.5131 20 22.9615 20.4484 22.9615 21.0016V25.7194Z" fill="#0F0F0F"/>
<path d="M27.61 20C28.6734 20 29.4566 20.2476 29.9594 20.7428C30.4705 21.2297 30.7261 21.9023 30.7261 22.7607C30.7261 23.1486 30.6725 23.5199 30.5653 23.8748C30.4581 24.2215 30.2809 24.5351 30.0336 24.8157C29.7863 25.088 29.4566 25.3026 29.0444 25.4594C28.6405 25.6162 28.1417 25.6946 27.5482 25.6946H26.8558V27.8375C26.8558 28.3906 26.4074 28.8391 25.8542 28.8391V28.8391C25.3011 28.8391 24.8526 28.3906 24.8526 27.8375V21.8519C24.8526 20.8291 25.6817 20 26.7045 20H27.61ZM27.5482 21.5351H26.8558V24.1596H27.3627C27.6265 24.1596 27.8615 24.1142 28.0676 24.0234C28.2736 23.9326 28.4344 23.7882 28.5498 23.5901C28.6652 23.392 28.7229 23.1362 28.7229 22.8226C28.7229 22.3851 28.624 22.0633 28.4261 21.8569C28.2365 21.6424 27.9439 21.5351 27.5482 21.5351Z" fill="#0F0F0F"/>
<path d="M33.7439 25.0962C33.7211 25.5494 33.3471 25.9051 32.8933 25.9051V25.9051C32.4396 25.9051 32.0655 25.5494 32.0428 25.0962L31.8422 21.1053C31.812 20.504 32.2913 20 32.8933 20V20C33.4953 20 33.9747 20.504 33.9445 21.1053L33.7439 25.0962ZM31.7866 27.9725C31.7866 27.5928 31.8938 27.3287 32.1081 27.1802C32.3225 27.0234 32.5821 26.945 32.8871 26.945C33.1839 26.945 33.4353 27.0234 33.6414 27.1802C33.8557 27.3287 33.9629 27.5928 33.9629 27.9725C33.9629 28.3356 33.8557 28.5997 33.6414 28.7648C33.4353 28.9216 33.1839 29 32.8871 29C32.5821 29 32.3225 28.9216 32.1081 28.7648C31.8938 28.5997 31.7866 28.3356 31.7866 27.9725Z" fill="#0F0F0F"/>
</svg>
