<svg width="187" height="39" viewBox="0 0 187 39" fill="none" xmlns="http://www.w3.org/2000/svg">
<rect x="1.34649" y="1.34649" width="37.1849" height="37.1849" rx="18.5924" fill="white"/>
<rect x="1.34649" y="1.34649" width="37.1849" height="37.1849" rx="18.5924" stroke="#EAEAEA" stroke-width="0.885355"/>
<path d="M19.939 8.979V17.0725L26.6835 20.1412L19.939 8.979Z" fill="#8FFCF3"/>
<path d="M19.939 8.979L13.1945 20.1412L19.939 17.0725V8.979Z" fill="#CABCF8"/>
<path d="M19.939 25.385V30.8987L26.6835 21.4226L19.939 25.385Z" fill="#CBA7F5"/>
<path d="M19.939 30.8987V25.385L13.1945 21.4226L19.939 30.8987Z" fill="#74A0F3"/>
<path d="M19.939 24.1206L26.6835 20.1413L19.939 17.0725V24.1206Z" fill="#CBA7F5"/>
<path d="M13.1945 20.1413L19.939 24.1206V17.0725L13.1945 20.1413Z" fill="#74A0F3"/>
<path fill-rule="evenodd" clip-rule="evenodd" d="M19.939 24.1205L13.1945 20.1412L19.939 8.979L26.6836 20.1412L19.939 24.1205ZM13.6497 19.8209L19.8378 9.56915V17.0219L13.6497 19.8209ZM13.5485 20.0907L19.8378 17.2579V23.8002L13.5317 20.0907H13.5485ZM20.0402 17.2579V23.8002L26.3295 20.0907L20.0402 17.2579ZM20.0402 17.0219L26.2283 19.8209L20.0402 9.56915V17.0219Z" fill="#202699"/>
<path fill-rule="evenodd" clip-rule="evenodd" d="M19.939 25.301L13.1945 21.4229L19.939 30.899L26.6836 21.406L19.939 25.301ZM13.9532 22.0973L19.8378 25.4865V30.3763L13.9364 22.1142L13.9532 22.0973ZM20.0402 25.4865V30.3763L25.9417 22.1142L20.0402 25.4865Z" fill="#202699"/>
<rect x="50.4167" y="1.34649" width="37.1849" height="37.1849" rx="18.5924" fill="white"/>
<rect x="50.4167" y="1.34649" width="37.1849" height="37.1849" rx="18.5924" stroke="#EAEAEA" stroke-width="0.885355"/>
<g clip-path="url(#clip0_178_102)">
<path d="M59.9886 15.6422L59.9884 24.2406C59.9884 24.7861 60.2808 25.2953 60.7612 25.5655L68.2386 29.8623C68.7138 30.1377 69.3038 30.1377 69.779 29.8623L77.2619 25.5659C77.7371 25.2906 78.0347 24.7866 78.0347 24.2411L78.035 15.6427C78.035 15.0972 77.7426 14.588 77.2622 14.3127L69.7795 10.0159C69.3044 9.74049 68.7143 9.74048 68.2391 10.0158L60.7562 14.3122C60.2863 14.5876 59.9886 15.0915 59.9886 15.6422Z" fill="#213147"/>
<path d="M70.6461 21.6066L69.5755 24.516C69.5442 24.5939 69.5442 24.6874 69.5755 24.7654L71.4082 29.7738L73.5335 28.5529L70.9855 21.6014C70.9281 21.4455 70.7035 21.4455 70.6461 21.6066Z" fill="#12AAFF"/>
<path d="M72.7819 16.7075C72.7244 16.5464 72.4999 16.5464 72.4372 16.7075L71.3667 19.6169C71.3353 19.7 71.3353 19.7883 71.3667 19.8663L74.3742 28.0699L76.4995 26.849L72.7819 16.7075Z" fill="#12AAFF"/>
<path d="M69.0122 10.3326C69.0644 10.3326 69.1166 10.3482 69.1636 10.3742L77.2572 15.0243C77.3512 15.0762 77.4086 15.1749 77.4086 15.284L77.4084 24.5838C77.4084 24.6929 77.3509 24.7916 77.2569 24.8436L69.1631 29.4985C69.1161 29.5244 69.0639 29.54 69.0117 29.54C68.9595 29.54 68.9072 29.5244 68.8602 29.4984L60.7667 24.8483C60.6727 24.7964 60.6152 24.6977 60.6152 24.5886L60.6155 15.2836C60.6155 15.1745 60.6729 15.0758 60.7669 15.0238L68.8608 10.3741C68.9078 10.3482 68.96 10.3326 69.0122 10.3326ZM69.0122 8.97658C68.725 8.97657 68.4326 9.0545 68.1767 9.19996L60.0829 13.8496C59.5712 14.1458 59.2474 14.6913 59.2474 15.2835L59.2471 24.5833C59.2471 25.1756 59.5656 25.7263 60.0826 26.0225L68.1762 30.6726C68.432 30.8233 68.7192 30.896 69.0116 30.896C69.3041 30.896 69.5913 30.8181 69.8471 30.6726L77.941 26.023C78.4579 25.7268 78.7765 25.1813 78.7765 24.5839L78.7767 15.2841C78.7767 14.6918 78.4582 14.1411 77.9413 13.8449L69.8477 9.20001C69.5866 9.05453 69.2994 8.97659 69.0122 8.97658Z" fill="#9DCCED"/>
<path d="M63.6591 28.0802L64.4059 26.054L65.8993 27.2905L64.505 28.5634L63.6591 28.0802Z" fill="#213147"/>
<path d="M68.3278 14.6242L66.2757 14.6242C66.1242 14.6241 65.9832 14.7177 65.931 14.8631L61.534 26.8644L63.6592 28.0854L68.5053 14.8684C68.5471 14.7489 68.4583 14.6242 68.3278 14.6242Z" fill="white"/>
<path d="M71.9204 14.6242L69.8682 14.6242C69.7168 14.6242 69.5758 14.7177 69.5236 14.8631L64.5051 28.5633L66.6303 29.7843L72.0927 14.8684C72.1397 14.7489 72.0457 14.6242 71.9204 14.6242Z" fill="white"/>
</g>
<rect x="99.487" y="1.34649" width="37.1849" height="37.1849" rx="18.5924" fill="white"/>
<rect x="99.487" y="1.34649" width="37.1849" height="37.1849" rx="18.5924" stroke="#EAEAEA" stroke-width="0.885355"/>
<path d="M126.353 13.127L119.922 9.4669C118.783 8.8163 117.375 8.81633 116.236 9.467L109.805 13.1275C108.666 13.7781 107.962 14.9777 107.962 16.2753L107.963 23.5995C107.963 24.8972 108.667 26.0967 109.805 26.7473L116.237 30.411C117.376 31.0617 118.784 31.0616 119.922 30.4109L126.354 26.7468C127.493 26.0962 128.196 24.8966 128.196 23.599L128.196 16.2748C128.196 14.9771 127.496 13.7776 126.353 13.127ZM123.184 20.6658L121.271 23.9336C121.01 24.3843 120.523 24.6606 119.996 24.6606L116.167 24.6607C115.64 24.6607 115.153 24.3845 114.891 23.9338L112.975 20.6661C112.713 20.2154 112.713 19.6629 112.975 19.2121L114.888 15.9444C115.149 15.4936 115.636 15.2174 116.163 15.2173L119.988 15.2172C120.515 15.2172 121.002 15.4935 121.264 15.9442L123.177 19.2119C123.446 19.6626 123.446 20.2151 123.184 20.6658Z" fill="#FE005B"/>
<rect x="148.557" y="1.34649" width="37.1849" height="37.1849" rx="18.5924" fill="white"/>
<rect x="148.557" y="1.34649" width="37.1849" height="37.1849" rx="18.5924" stroke="#EAEAEA" stroke-width="0.885355"/>
<path d="M161.542 12.3401L167.15 8.979L172.758 12.3401L170.693 13.5822L167.15 11.4633L163.606 13.5822L161.542 12.3401ZM172.758 16.5779L170.693 15.3358L167.15 17.4547L163.606 15.3358L161.542 16.5779V19.0257L165.086 21.1446V25.419L167.15 26.6611L169.214 25.419V21.1629L172.758 19.0439V16.5779ZM172.758 23.2818V20.7975L170.693 22.0397V24.5239L172.758 23.2818ZM174.219 24.1586L170.675 26.2775V28.7618L176.283 25.4007V18.6969L174.219 19.9207V24.1586ZM172.155 14.459L174.219 15.7011V18.1671L176.283 16.9433V14.459L174.219 13.2169L172.155 14.459ZM165.086 27.1726V29.6569L167.15 30.899L169.214 29.6569V27.1726L167.15 28.4147L165.086 27.1726ZM161.542 23.2818L163.606 24.5239V22.0397L161.542 20.7975V23.2818ZM165.086 14.459L167.15 15.7011L169.214 14.459L167.15 13.2169L165.086 14.459ZM160.08 15.7011L162.145 14.459L160.08 13.2169L158.016 14.459V16.9433L160.08 18.1671V15.7011ZM160.08 19.9207L158.016 18.6969V25.4007L163.624 28.7618V26.2775L160.08 24.1586V19.939V19.9207Z" fill="#F0B90B"/>
<defs>
<clipPath id="clip0_178_102">
<rect width="19.5241" height="21.9246" fill="white" transform="translate(59.2473 8.97632)"/>
</clipPath>
</defs>
</svg>
