<svg width="26" height="26" viewBox="0 0 26 26" fill="none" xmlns="http://www.w3.org/2000/svg">
<g clip-path="url(#clip0_312_449)">
<path d="M13 26C20.1797 26 26 20.1797 26 13C26 5.8203 20.1797 0 13 0C5.8203 0 0 5.8203 0 13C0 20.1797 5.8203 26 13 26Z" fill="url(#paint0_linear_312_449)"/>
<path fill-rule="evenodd" clip-rule="evenodd" d="M5.8846 12.8628C9.67437 11.2117 12.2015 10.1232 13.4659 9.59723C17.0761 8.0956 17.8263 7.83475 18.3153 7.82614C18.4228 7.82425 18.6633 7.8509 18.819 7.97728C18.9505 8.084 18.9867 8.22816 19.004 8.32934C19.0214 8.43052 19.0429 8.66101 19.0258 8.84111C18.8301 10.8967 17.9836 15.8851 17.5529 18.1874C17.3707 19.1616 17.0119 19.4883 16.6645 19.5203C15.9096 19.5897 15.3363 19.0213 14.6051 18.542C13.461 17.792 12.8146 17.3251 11.704 16.5932C10.4205 15.7474 11.2525 15.2826 11.984 14.5228C12.1754 14.324 15.5017 11.2985 15.566 11.0241C15.5741 10.9897 15.5816 10.8618 15.5055 10.7942C15.4295 10.7267 15.3173 10.7498 15.2364 10.7681C15.1216 10.7942 13.2938 12.0023 9.75291 14.3925C9.23409 14.7488 8.76416 14.9224 8.34311 14.9133C7.87895 14.9032 6.98607 14.6508 6.32232 14.4351C5.50819 14.1704 4.86114 14.0305 4.91748 13.5811C4.94683 13.347 5.2692 13.1075 5.8846 12.8628Z" fill="white"/>
</g>
<defs>
<linearGradient id="paint0_linear_312_449" x1="1300" y1="0" x2="1300" y2="2580.72" gradientUnits="userSpaceOnUse">
<stop stop-color="#2AABEE"/>
<stop offset="1" stop-color="#229ED9"/>
</linearGradient>
<clipPath id="clip0_312_449">
<rect width="26" height="26" rx="13" fill="white"/>
</clipPath>
</defs>
</svg>
