<svg width="81" height="81" viewBox="0 0 81 81" fill="none" xmlns="http://www.w3.org/2000/svg">
<g clip-path="url(#clip0_1081_891)">
<path d="M0 0H81V73C81 77.4183 77.4183 81 73 81H8C3.58172 81 0 77.4183 0 73V0Z" fill="#868FCD"/>
<path d="M35.5271 54.3828C35.5271 55.9186 35.195 57.3091 34.5308 58.5544C33.8875 59.7789 32.912 60.7544 31.6045 61.4808C30.297 62.1864 28.6574 62.5392 26.6857 62.5392C23.8631 62.5392 21.7047 61.7921 20.2103 60.2978C18.7368 58.7827 18 56.7903 18 54.3205V42.5217C18 41.129 19.129 40 20.5217 40V40C21.9143 40 23.0433 41.129 23.0433 42.5217V53.6045C23.0433 55.4309 23.3546 56.7176 23.9773 57.4648C24.6206 58.212 25.5546 58.5855 26.7791 58.5855C27.6508 58.5855 28.3564 58.4091 28.896 58.0563C29.4357 57.7035 29.83 57.1535 30.079 56.4063C30.3488 55.6592 30.4837 54.7148 30.4837 53.5734V42.5217C30.4837 41.129 31.6127 40 33.0054 40V40C34.3981 40 35.5271 41.129 35.5271 42.5217V54.3828Z" fill="white"/>
<path d="M47.2306 40C49.9079 40 51.8795 40.6226 53.1456 41.8679C54.4323 43.0924 55.0757 44.7839 55.0757 46.9423C55.0757 47.9178 54.9408 48.8517 54.671 49.7442C54.4012 50.6159 53.955 51.4045 53.3324 52.1102C52.7097 52.7951 51.8795 53.3347 50.8418 53.729C49.8249 54.1233 48.5692 54.3205 47.0749 54.3205H45.3315V59.7063C45.3315 61.0989 44.2026 62.2279 42.8099 62.2279V62.2279C41.4172 62.2279 40.2882 61.0989 40.2882 59.7063V43C40.2882 41.3431 41.6314 40 43.2882 40H47.2306ZM47.0749 43.8603H45.3315V50.4602H46.6079C47.2721 50.4602 47.8636 50.3461 48.3824 50.1178C48.9013 49.8895 49.306 49.5263 49.5966 49.0281C49.8871 48.53 50.0324 47.8867 50.0324 47.098C50.0324 45.998 49.7834 45.1886 49.2853 44.6697C48.8079 44.1301 48.0711 43.8603 47.0749 43.8603Z" fill="white"/>
<path d="M62.6738 52.8132C62.6164 53.9541 61.6746 54.8497 60.5323 54.8497V54.8497C59.3899 54.8497 58.4481 53.9541 58.3907 52.8132L57.886 42.7828C57.8098 41.269 59.0166 40 60.5323 40V40C62.0479 40 63.2547 41.269 63.1785 42.7828L62.6738 52.8132ZM57.746 60.0487C57.746 59.094 58.0158 58.4299 58.5554 58.0563C59.095 57.662 59.7488 57.4648 60.5167 57.4648C61.2638 57.4648 61.8969 57.662 62.4157 58.0563C62.9553 58.4299 63.2251 59.094 63.2251 60.0487C63.2251 60.9619 62.9553 61.626 62.4157 62.0411C61.8969 62.4355 61.2638 62.6326 60.5167 62.6326C59.7488 62.6326 59.095 62.4355 58.5554 62.0411C58.0158 61.626 57.746 60.9619 57.746 60.0487Z" fill="white"/>
<path d="M22.5547 0V3C22.5547 7.7739 24.4394 12.3523 27.7942 15.7279C31.149 19.1036 35.6991 21 40.4436 21C45.188 21 49.7381 19.1036 53.0929 15.7279C56.4477 12.3523 58.3325 7.7739 58.3325 3V0" stroke="white" stroke-width="2.77083" stroke-linecap="round" stroke-linejoin="round"/>
</g>
<defs>
<clipPath id="clip0_1081_891">
<path d="M0 0H81V73C81 77.4183 77.4183 81 73 81H8C3.58172 81 0 77.4183 0 73V0Z" fill="white"/>
</clipPath>
</defs>
</svg>
