<svg width="81" height="81" viewBox="0 0 81 81" fill="none" xmlns="http://www.w3.org/2000/svg">
<g clip-path="url(#clip0_1138_741)">
<rect width="81" height="81" fill="#868FCD"/>
<path d="M34.7244 53.5227C34.7244 55.287 34.3507 56.8845 33.6033 58.315C32.8792 59.7217 31.7815 60.8423 30.31 61.6768C28.8386 62.4874 26.9935 62.8927 24.7746 62.8927C21.5982 62.8927 19.1691 62.0344 17.4874 60.3177C15.8291 58.5773 15 56.2884 15 53.4512V39.8378C15 38.2705 16.2705 37 17.8378 37V37C19.4051 37 20.6756 38.2705 20.6756 39.8378V52.6286C20.6756 54.7267 21.0259 56.205 21.7266 57.0633C22.4507 57.9216 23.5017 58.3508 24.8797 58.3508C25.8607 58.3508 26.6548 58.1481 27.2621 57.7428C27.8693 57.3375 28.3131 56.7056 28.5934 55.8473C28.897 54.989 29.0488 53.9042 29.0488 52.5928V39.8378C29.0488 38.2705 30.3193 37 31.8866 37V37C33.4539 37 34.7244 38.2705 34.7244 39.8378V53.5227Z" fill="white"/>
<path d="M47.8951 37C50.9081 37 53.1269 37.7153 54.5517 39.1458C55.9998 40.5525 56.7238 42.4956 56.7238 44.9752C56.7238 46.0958 56.572 47.1687 56.2684 48.1939C55.9647 49.1953 55.4626 50.1013 54.7619 50.912C54.0612 51.6988 53.1269 52.3187 51.9591 52.7717C50.8147 53.2247 49.4016 53.4512 47.72 53.4512H45.758V59.6973C45.758 61.2646 44.4875 62.5351 42.9202 62.5351V62.5351C41.353 62.5351 40.0825 61.2646 40.0825 59.6973V40C40.0825 38.3431 41.4256 37 43.0825 37H47.8951ZM47.72 41.4347H45.758V49.0165H47.1944C47.9419 49.0165 48.6075 48.8854 49.1914 48.6231C49.7753 48.3608 50.2308 47.9436 50.5578 47.3714C50.8847 46.7992 51.0482 46.0601 51.0482 45.1541C51.0482 43.8904 50.768 42.9606 50.2074 42.3645C49.6702 41.7446 48.8411 41.4347 47.72 41.4347Z" fill="white"/>
<path d="M65.2721 51.7672C65.2089 53.0508 64.1496 54.0591 62.8644 54.0591V54.0591C61.5792 54.0591 60.52 53.0508 60.4567 51.7672L59.8832 40.1318C59.7992 38.4277 61.1582 37 62.8644 37V37C64.5706 37 65.9296 38.4277 65.8456 40.1318L65.2721 51.7672ZM59.7288 60.0316C59.7288 58.9349 60.0325 58.1719 60.6397 57.7428C61.247 57.2898 61.9827 57.0633 62.8469 57.0633C63.6877 57.0633 64.4001 57.2898 64.984 57.7428C65.5913 58.1719 65.8949 58.9349 65.8949 60.0316C65.8949 61.0807 65.5913 61.8436 64.984 62.3205C64.4001 62.7735 63.6877 63 62.8469 63C61.9827 63 61.247 62.7735 60.6397 62.3205C60.0325 61.8436 59.7288 61.0807 59.7288 60.0316Z" fill="white"/>
<path d="M60 2.5C60 13.2696 51.2696 22 40.5 22C29.7304 22 21 13.2696 21 2.5C21 -8.26955 29.7304 -17 40.5 -17C51.2696 -17 60 -8.26955 60 2.5ZM24.6841 2.5C24.6841 11.2349 31.7651 18.3159 40.5 18.3159C49.2349 18.3159 56.3159 11.2349 56.3159 2.5C56.3159 -6.23491 49.2349 -13.3159 40.5 -13.3159C31.7651 -13.3159 24.6841 -6.23491 24.6841 2.5Z" fill="white"/>
</g>
<defs>
<clipPath id="clip0_1138_741">
<rect width="81" height="81" rx="6" fill="white"/>
</clipPath>
</defs>
</svg>
