<svg width="87" height="86" viewBox="0 0 87 86" fill="none" xmlns="http://www.w3.org/2000/svg">
<path d="M86.5 29.4278V21.5635H0.5V29.4278H86.5Z" fill="url(#paint0_linear_1055_748)"/>
<path d="M0.5 82.9558C0.5 84.6371 1.86296 86.0001 3.54425 86.0001H83.4558C85.137 86.0001 86.5 84.6371 86.5 82.9558V29.4278H0.5V82.9558Z" fill="url(#paint1_linear_1055_748)"/>
<path d="M56.3616 48.4344L46.4436 42.7569C44.6873 41.7477 42.5161 41.7477 40.7599 42.7569L30.8418 48.4344C29.0856 49.4436 28 51.3041 28 53.3169V64.6775C28 66.6902 29.0856 68.5508 30.8418 69.56L40.7599 75.2431C42.5161 76.2523 44.6873 76.2523 46.4436 75.2431L56.3616 69.56C58.1179 68.5508 59.2035 66.6902 59.2035 64.6775V53.3169C59.2035 51.3041 58.1236 49.4436 56.3616 48.4344Z" fill="#868FCD"/>
<path d="M41.4465 60.3326C41.4465 60.9868 41.3047 61.5791 41.0211 62.1096C40.7463 62.6312 40.3297 63.0467 39.7712 63.3561C39.2128 63.6567 38.5126 63.807 37.6705 63.807C36.465 63.807 35.5431 63.4887 34.9049 62.8522C34.2756 62.2068 33.9609 61.3581 33.9609 60.3061V54.2061H36.1149V60.0011C36.1149 60.7791 36.2478 61.3272 36.5137 61.6454C36.7885 61.9637 37.1874 62.1228 37.7104 62.1228C38.0827 62.1228 38.384 62.0477 38.6145 61.8974C38.845 61.7471 39.0134 61.5128 39.1197 61.1946C39.235 60.8763 39.2926 60.4741 39.2926 59.9878V54.2061H41.4465V60.3326Z" fill="white"/>
<path d="M46.445 54.2061C47.5884 54.2061 48.4305 54.4713 48.9712 55.0017C49.5207 55.5233 49.7955 56.2438 49.7955 57.1632C49.7955 57.5788 49.7379 57.9766 49.6227 58.3567C49.5074 58.728 49.3169 59.064 49.0509 59.3646C48.785 59.6563 48.4305 59.8862 47.9873 60.0541C47.5529 60.2221 47.0167 60.3061 46.3785 60.3061H45.6339V63.6744H43.48V54.2061H46.445ZM46.3785 55.8504H45.6339V58.6617H46.179C46.4627 58.6617 46.7153 58.6131 46.9369 58.5159C47.1585 58.4186 47.3313 58.2639 47.4554 58.0517C47.5795 57.8395 47.6416 57.5655 47.6416 57.2295C47.6416 56.761 47.5352 56.4162 47.3225 56.1952C47.1186 55.9653 46.8039 55.8504 46.3785 55.8504Z" fill="white"/>
<path d="M52.9968 60.5315H51.2551L50.936 54.2061H53.3159L52.9968 60.5315ZM50.936 62.7461C50.936 62.3394 51.0512 62.0565 51.2816 61.8974C51.5121 61.7294 51.7913 61.6454 52.1193 61.6454C52.4384 61.6454 52.7087 61.7294 52.9303 61.8974C53.1608 62.0565 53.276 62.3394 53.276 62.7461C53.276 63.1351 53.1608 63.418 52.9303 63.5948C52.7087 63.7628 52.4384 63.8467 52.1193 63.8467C51.7913 63.8467 51.5121 63.7628 51.2816 63.5948C51.0512 63.418 50.936 63.1351 50.936 62.7461Z" fill="white"/>
<path d="M66.4582 29.4277V21.5634V7.35693L58.0865 0V7.35693V21.5634V29.4277H66.4582Z" fill="url(#paint2_linear_1055_748)"/>
<path d="M28.4051 29.4277V21.5634V7.35693V0L20.2871 7.35693V21.5634V29.4277H28.4051Z" fill="#F3F3F3"/>
<path fill-rule="evenodd" clip-rule="evenodd" d="M28.4051 29.4277H58.0865V21.5634H28.4051V29.4277ZM58.0865 7.35693H28.4051V0H58.0865V7.35693Z" fill="url(#paint3_linear_1055_748)"/>
<defs>
<linearGradient id="paint0_linear_1055_748" x1="43.6268" y1="21.3098" x2="43.6268" y2="29.1741" gradientUnits="userSpaceOnUse">
<stop stop-color="#B8B8B8"/>
<stop offset="1" stop-color="#D1D1D1"/>
</linearGradient>
<linearGradient id="paint1_linear_1055_748" x1="43.6268" y1="102.49" x2="43.1195" y2="29.9352" gradientUnits="userSpaceOnUse">
<stop stop-color="#B8B8B8" stop-opacity="0.42"/>
<stop offset="0.625404" stop-color="#FAFAFA"/>
</linearGradient>
<linearGradient id="paint2_linear_1055_748" x1="43.2458" y1="0" x2="43.2458" y2="120.248" gradientUnits="userSpaceOnUse">
<stop stop-color="#F3F3F3"/>
<stop offset="1" stop-color="#D1D1D1"/>
</linearGradient>
<linearGradient id="paint3_linear_1055_748" x1="43.2458" y1="0" x2="43.2458" y2="120.248" gradientUnits="userSpaceOnUse">
<stop stop-color="#D2D2D2"/>
<stop offset="1" stop-color="#D1D1D1"/>
</linearGradient>
</defs>
</svg>
