<svg width="23" height="24" viewBox="0 0 23 24" fill="none" xmlns="http://www.w3.org/2000/svg">
<path d="M20.5211 4.54191L13.5092 0.534284C12.2675 -0.178095 10.7325 -0.178095 9.49084 0.534284L2.47886 4.54191C1.2372 5.25429 0.469696 6.56761 0.469696 7.98839V16.0076C0.469696 17.4284 1.2372 18.7417 2.47886 19.4541L9.49084 23.4657C10.7325 24.1781 12.2675 24.1781 13.5092 23.4657L20.5211 19.4541C21.7628 18.7417 22.5303 17.4284 22.5303 16.0076V7.98839C22.5303 6.56761 21.7668 5.25429 20.5211 4.54191ZM17.0654 12.796L14.9799 16.3738C14.6946 16.8673 14.1641 17.1697 13.5895 17.1697H9.41449C8.83987 17.1697 8.30945 16.8673 8.02415 16.3738L5.93462 12.796C5.64932 12.3025 5.64932 11.6975 5.93462 11.204L8.02013 7.62623C8.30543 7.13274 8.83585 6.83028 9.41047 6.83028H13.5815C14.1561 6.83028 14.6865 7.13274 14.9718 7.62623L17.0573 11.204C17.3507 11.6975 17.3507 12.3025 17.0654 12.796Z" fill="#FD1669"/>
</svg>
