<svg width="21" height="23" viewBox="0 0 21 23" fill="none" xmlns="http://www.w3.org/2000/svg">
<path d="M19.0497 4.53793L12.6184 0.877628C11.4796 0.226989 10.0717 0.226989 8.93282 0.877628L2.50148 4.53793C1.36264 5.18857 0.658691 6.38807 0.658691 7.68571L0.658691 15.0099C0.658691 16.3076 1.36264 17.5071 2.50148 18.1577L8.93282 21.8217C10.0717 22.4723 11.4796 22.4723 12.6184 21.8217L19.0497 18.1577C20.1886 17.5071 20.8925 16.3076 20.8925 15.0099V7.68571C20.8925 6.38807 20.1923 5.18857 19.0497 4.53793ZM15.8801 12.0766L13.9673 15.3444C13.7057 15.7951 13.2192 16.0713 12.6921 16.0713H8.8628C8.33576 16.0713 7.84926 15.7951 7.58759 15.3444L5.67108 12.0766C5.40941 11.6259 5.40941 11.0734 5.67108 10.6227L7.5839 7.35494C7.84558 6.90422 8.33207 6.62797 8.85911 6.62797H12.6847C13.2118 6.62797 13.6983 6.90422 13.96 7.35494L15.8728 10.6227C16.1418 11.0734 16.1418 11.6259 15.8801 12.0766Z" fill="#FE005B"/>
</svg>
