<svg width="25" height="25" viewBox="0 0 25 25" fill="none" xmlns="http://www.w3.org/2000/svg">
<g filter="url(#filter0_i_31_11)">
<rect width="24.25" height="24.25" rx="5.30469" fill="url(#paint0_linear_31_11)"/>
<g filter="url(#filter1_i_31_11)">
<path d="M5.25732 8.52539C5.25732 8.31613 5.08768 8.14648 4.87842 8.14648H3.69434C3.48507 8.14648 3.31543 8.31613 3.31543 8.52539V13.0299C3.31543 13.5596 3.39314 14.0969 3.6953 14.532C4.14384 15.1778 5.03855 16.0445 6.63086 16.1035C8.29351 16.1651 9.19556 15.1859 9.62327 14.493C9.88063 14.0761 9.94629 13.5807 9.94629 13.0907V8.52539C9.94629 8.31613 9.77665 8.14648 9.56738 8.14648H8.47803C8.26876 8.14648 8.09912 8.31613 8.09912 8.52539V12.9775C8.09912 13.7623 7.46296 14.3984 6.67822 14.3984C5.89348 14.3984 5.25732 13.7623 5.25732 12.9775V8.52539Z" fill="white"/>
<path fill-rule="evenodd" clip-rule="evenodd" d="M12.3618 8.05176C12.1526 8.05176 11.9829 8.2214 11.9829 8.43066V15.4404C11.9829 15.6497 12.1526 15.8193 12.3618 15.8193H13.4985C13.7078 15.8193 13.8774 15.6497 13.8774 15.4404V13.6406C13.8774 13.4314 14.0471 13.2617 14.2563 13.2617H15.0615C16.4741 13.2617 17.6191 12.1166 17.6191 10.7041V10.6094C17.6191 9.19684 16.4741 8.05176 15.0615 8.05176H12.3618ZM13.9248 11.5093V9.52002H14.7943C14.8456 9.52002 14.897 9.52998 14.9431 9.5527C15.8271 9.98905 15.6694 11.0659 14.9474 11.4705C14.8987 11.4978 14.8431 11.5093 14.7874 11.5093H13.9248Z" fill="white"/>
<path d="M18.7392 8.45918C18.7227 8.2393 18.8966 8.05176 19.1171 8.05176H20.4307C20.6514 8.05176 20.8254 8.23966 20.8085 8.45972L20.486 12.6511C20.4716 12.8386 20.3219 12.9871 20.1343 13.0001L19.463 13.0464C19.2552 13.0607 19.0747 12.9046 19.0591 12.6969L18.7392 8.45918Z" fill="white"/>
<path d="M20.9346 14.9668C20.9346 15.6207 20.4044 16.1509 19.7505 16.1509C19.0965 16.1509 18.5664 15.6207 18.5664 14.9668C18.5664 14.3128 19.0965 13.7827 19.7505 13.7827C20.4044 13.7827 20.9346 14.3128 20.9346 14.9668Z" fill="white"/>
</g>
</g>
<defs>
<filter id="filter0_i_31_11" x="-1.51562" y="0" width="25.7656" height="24.5342" filterUnits="userSpaceOnUse" color-interpolation-filters="sRGB">
<feFlood flood-opacity="0" result="BackgroundImageFix"/>
<feBlend mode="normal" in="SourceGraphic" in2="BackgroundImageFix" result="shape"/>
<feColorMatrix in="SourceAlpha" type="matrix" values="0 0 0 0 0 0 0 0 0 0 0 0 0 0 0 0 0 0 127 0" result="hardAlpha"/>
<feOffset dx="-1.51562" dy="0.28418"/>
<feGaussianBlur stdDeviation="0.914111"/>
<feComposite in2="hardAlpha" operator="arithmetic" k2="-1" k3="1"/>
<feColorMatrix type="matrix" values="0 0 0 0 0 0 0 0 0 0 0 0 0 0 0 0 0 0 0.25 0"/>
<feBlend mode="normal" in2="shape" result="effect1_innerShadow_31_11"/>
</filter>
<filter id="filter1_i_31_11" x="3.31543" y="8.05176" width="17.7707" height="8.25068" filterUnits="userSpaceOnUse" color-interpolation-filters="sRGB">
<feFlood flood-opacity="0" result="BackgroundImageFix"/>
<feBlend mode="normal" in="SourceGraphic" in2="BackgroundImageFix" result="shape"/>
<feColorMatrix in="SourceAlpha" type="matrix" values="0 0 0 0 0 0 0 0 0 0 0 0 0 0 0 0 0 0 127 0" result="hardAlpha"/>
<feOffset dx="0.189453" dy="0.378906"/>
<feGaussianBlur stdDeviation="0.0757812"/>
<feComposite in2="hardAlpha" operator="arithmetic" k2="-1" k3="1"/>
<feColorMatrix type="matrix" values="0 0 0 0 0 0 0 0 0 0 0 0 0 0 0 0 0 0 0.25 0"/>
<feBlend mode="normal" in2="shape" result="effect1_innerShadow_31_11"/>
</filter>
<linearGradient id="paint0_linear_31_11" x1="1.89453" y1="1.23145" x2="22.6396" y2="22.4976" gradientUnits="userSpaceOnUse">
<stop stop-color="#8A93D2"/>
<stop offset="1" stop-color="#4D5683"/>
</linearGradient>
</defs>
</svg>
