<svg width="22" height="23" viewBox="0 0 22 23" fill="none" xmlns="http://www.w3.org/2000/svg">
<path d="M19.1858 4.35267L12.4765 0.512022C11.2885 -0.170674 9.81974 -0.170674 8.63169 0.512022L1.92242 4.35267C0.734368 5.03536 0 6.29396 0 7.65554V15.3406C0 16.7022 0.734368 17.9608 1.92242 18.6435L8.63169 22.488C9.81974 23.1707 11.2885 23.1707 12.4765 22.488L19.1858 18.6435C20.3739 17.9608 21.1082 16.7022 21.1082 15.3406V7.65554C21.1082 6.29396 20.3777 5.03536 19.1858 4.35267Z" fill="#868FCD"/>
<path d="M9.09698 12.4013C9.09698 12.8438 9.00104 13.2445 8.80917 13.6033C8.62328 13.9562 8.34146 14.2373 7.9637 14.4466C7.58594 14.6499 7.11225 14.7516 6.54261 14.7516C5.72713 14.7516 5.10352 14.5363 4.6718 14.1057C4.24607 13.6691 4.0332 13.095 4.0332 12.3833V8.25684H5.49028V12.177C5.49028 12.7033 5.58022 13.0741 5.76011 13.2894C5.94599 13.5047 6.21582 13.6123 6.56959 13.6123C6.82143 13.6123 7.0253 13.5615 7.1812 13.4598C7.3371 13.3581 7.45103 13.1997 7.52298 12.9844C7.60094 12.7691 7.63991 12.497 7.63991 12.168V8.25684H9.09698V12.4013Z" fill="white"/>
<path d="M12.4783 8.25684C13.2518 8.25684 13.8214 8.43625 14.1872 8.79507C14.5589 9.14792 14.7448 9.63532 14.7448 10.2573C14.7448 10.5384 14.7059 10.8075 14.6279 11.0646C14.55 11.3158 14.421 11.5431 14.2412 11.7464C14.0613 11.9438 13.8214 12.0993 13.5216 12.2129C13.2278 12.3265 12.865 12.3833 12.4333 12.3833H11.9296V14.6619H10.4725V8.25684H12.4783ZM12.4333 9.36919H11.9296V11.271H12.2984C12.4903 11.271 12.6612 11.2381 12.8111 11.1723C12.961 11.1065 13.0779 11.0018 13.1618 10.8583C13.2458 10.7148 13.2878 10.5294 13.2878 10.3021C13.2878 9.98518 13.2158 9.75194 13.0719 9.60243C12.934 9.44694 12.7211 9.36919 12.4333 9.36919Z" fill="white"/>
<path d="M16.9104 12.5358H15.7322L15.5163 8.25684H17.1263L16.9104 12.5358ZM15.5163 14.0339C15.5163 13.7588 15.5943 13.5674 15.7502 13.4598C15.9061 13.3462 16.0949 13.2894 16.3168 13.2894C16.5327 13.2894 16.7155 13.3462 16.8654 13.4598C17.0213 13.5674 17.0993 13.7588 17.0993 14.0339C17.0993 14.2971 17.0213 14.4884 16.8654 14.608C16.7155 14.7217 16.5327 14.7785 16.3168 14.7785C16.0949 14.7785 15.9061 14.7217 15.7502 14.608C15.5943 14.4884 15.5163 14.2971 15.5163 14.0339Z" fill="white"/>
</svg>
