<svg width="81" height="81" viewBox="0 0 81 81" fill="none" xmlns="http://www.w3.org/2000/svg">
<rect width="81" height="81" rx="40.5" fill="#868FCD"/>
<path d="M35.5271 43.3828C35.5271 44.9186 35.195 46.3091 34.5308 47.5544C33.8875 48.7789 32.912 49.7544 31.6045 50.4808C30.297 51.1864 28.6574 51.5392 26.6857 51.5392C23.8631 51.5392 21.7047 50.7921 20.2103 49.2978C18.7368 47.7827 18 45.7903 18 43.3205V31.5217C18 30.129 19.129 29 20.5217 29V29C21.9143 29 23.0433 30.129 23.0433 31.5217V42.6045C23.0433 44.4309 23.3546 45.7176 23.9773 46.4648C24.6206 47.212 25.5546 47.5855 26.7791 47.5855C27.6508 47.5855 28.3564 47.4091 28.896 47.0563C29.4357 46.7035 29.83 46.1535 30.079 45.4063C30.3488 44.6592 30.4837 43.7148 30.4837 42.5734V31.5217C30.4837 30.129 31.6127 29 33.0054 29V29C34.3981 29 35.5271 30.129 35.5271 31.5217V43.3828Z" fill="white"/>
<path d="M47.2306 29C49.9079 29 51.8795 29.6226 53.1456 30.8679C54.4323 32.0924 55.0757 33.7839 55.0757 35.9423C55.0757 36.9178 54.9408 37.8517 54.671 38.7442C54.4012 39.6159 53.955 40.4045 53.3324 41.1102C52.7097 41.7951 51.8795 42.3347 50.8418 42.729C49.8249 43.1233 48.5692 43.3205 47.0749 43.3205H45.3315V48.7063C45.3315 50.0989 44.2026 51.2279 42.8099 51.2279V51.2279C41.4172 51.2279 40.2882 50.0989 40.2882 48.7063V32C40.2882 30.3431 41.6314 29 43.2882 29H47.2306ZM47.0749 32.8603H45.3315V39.4602H46.6079C47.2721 39.4602 47.8636 39.3461 48.3824 39.1178C48.9013 38.8895 49.306 38.5263 49.5966 38.0281C49.8871 37.53 50.0324 36.8867 50.0324 36.098C50.0324 34.998 49.7834 34.1886 49.2853 33.6697C48.8079 33.1301 48.0711 32.8603 47.0749 32.8603Z" fill="white"/>
<path d="M62.6738 41.8132C62.6164 42.9541 61.6746 43.8497 60.5323 43.8497V43.8497C59.3899 43.8497 58.4481 42.9541 58.3907 41.8132L57.886 31.7828C57.8098 30.269 59.0166 29 60.5323 29V29C62.0479 29 63.2547 30.269 63.1785 31.7828L62.6738 41.8132ZM57.746 49.0487C57.746 48.094 58.0158 47.4299 58.5554 47.0563C59.095 46.662 59.7488 46.4648 60.5167 46.4648C61.2638 46.4648 61.8969 46.662 62.4157 47.0563C62.9553 47.4299 63.2251 48.094 63.2251 49.0487C63.2251 49.9619 62.9553 50.626 62.4157 51.0411C61.8969 51.4355 61.2638 51.6326 60.5167 51.6326C59.7488 51.6326 59.095 51.4355 58.5554 51.0411C58.0158 50.626 57.746 49.9619 57.746 49.0487Z" fill="white"/>
</svg>
