<svg width="118" height="118" viewBox="0 0 118 118" fill="none" xmlns="http://www.w3.org/2000/svg">
<mask id="mask0_261_493" style="mask-type:luminance" maskUnits="userSpaceOnUse" x="0" y="0" width="118" height="118">
<path d="M118 0H0V118H118V0Z" fill="white"/>
</mask>
<g mask="url(#mask0_261_493)">
<path d="M118 59C118 26.4152 91.5848 0 59 0C26.4152 0 0 26.4152 0 59C0 91.5848 26.4152 118 59 118C91.5848 118 118 91.5848 118 59Z" fill="url(#paint0_linear_261_493)"/>
<path d="M77.9239 66.5639C81.682 66.5639 84.7283 69.6101 84.7283 73.3683V76.147C84.7283 77.8819 84.1861 79.5733 83.1773 80.9847C78.5 87.5301 70.8624 90.7724 60.5141 90.7724C50.1633 90.7724 42.5296 87.5286 37.8638 80.9799C36.8593 79.5702 36.3195 77.8825 36.3195 76.1516V73.3683C36.3195 69.6101 39.366 66.5639 43.1239 66.5639H77.9239ZM60.5141 30.2704C68.8691 30.2704 75.6423 37.0436 75.6423 45.3987C75.6423 53.7537 68.8691 60.5269 60.5141 60.5269C52.1588 60.5269 45.3859 53.7537 45.3859 45.3987C45.3859 37.0436 52.1588 30.2704 60.5141 30.2704Z" fill="white"/>
</g>
<defs>
<linearGradient id="paint0_linear_261_493" x1="59" y1="0" x2="59" y2="118" gradientUnits="userSpaceOnUse">
<stop offset="0.345" stop-color="#FDC5EC"/>
<stop offset="0.865" stop-color="#ECF134"/>
</linearGradient>
</defs>
</svg>
