<svg width="82" height="59" viewBox="0 0 82 59" fill="none" xmlns="http://www.w3.org/2000/svg">
<g clip-path="url(#clip0_104_723)">
<path d="M40.8845 58.8737C63.5513 58.8737 81.9261 55.8815 81.9261 52.1902C81.9261 48.4988 63.5513 45.5066 40.8845 45.5066C18.2181 45.5066 -0.156738 48.4988 -0.156738 52.1902C-0.156738 55.8815 18.2181 58.8737 40.8845 58.8737Z" fill="url(#paint0_radial_104_723)"/>
<path d="M58.4496 46.0829C58.4496 46.0829 59.3715 49.457 60.3211 49.5717C61.2702 49.6867 62.9152 50.3663 62.6017 51.3585C62.2885 52.3508 57.2548 52.6839 54.5322 52.6839C51.81 52.6839 54.8457 44.9088 56.0987 44.5164C57.352 44.1248 58.4496 46.0829 58.4496 46.0829Z" fill="url(#paint1_linear_104_723)"/>
<path d="M40.4635 4.33523C40.3516 3.87468 40.7107 3.42665 41.1841 3.44861C41.657 3.47053 42.1772 3.78383 42.7994 4.236C43.8071 4.96808 44.7221 5.60927 46.6456 4.96808C48.5692 4.32685 48.7522 0.756356 49.7587 0.480676C50.7656 0.204956 51.8652 1.67119 52.9636 4.14307C54.0624 6.61496 55.9859 11.8346 56.8098 16.7793C57.6337 21.7239 60.2897 32.5014 59.6484 39.7031C59.0071 46.9055 59.5565 48.3614 56.1685 51.4785C52.9563 54.5907 45.0885 53.8636 42.25 52.9478C39.4118 52.032 34.7417 44.8901 37.3053 36.6482C39.8689 28.4067 42.9824 20.7154 43.4407 19.0672C43.8982 17.4194 44.082 16.4116 43.7152 15.8622C43.3488 15.3128 41.426 15.4047 40.877 12.5654C40.3276 9.72685 41.518 9.45235 41.2435 7.89527C41.0483 6.78934 40.668 5.17381 40.4643 4.3321L40.4635 4.33523Z" fill="#FDC5EC"/>
<mask id="mask0_104_723" style="mask-type:luminance" maskUnits="userSpaceOnUse" x="36" y="0" width="24" height="54">
<path d="M40.4635 4.33442C40.3516 3.87387 40.7107 3.42589 41.1841 3.44781C41.657 3.46973 42.1772 3.78302 42.7994 4.23524C43.8071 4.96728 44.7221 5.60851 46.6456 4.96728C48.5692 4.32609 48.7522 0.755595 49.7587 0.479875C50.7656 0.204195 51.8652 1.67039 52.9636 4.14227C54.0624 6.61416 55.9859 11.8338 56.8098 16.7785C57.6337 21.7231 60.2897 32.5006 59.6484 39.7023C59.0071 46.9047 59.5565 48.3606 56.1685 51.4777C52.781 54.596 45.0885 53.8628 42.25 52.947C39.4118 52.0312 34.7417 44.8893 37.3053 36.6474C39.8689 28.4059 42.9824 20.7146 43.4407 19.0664C43.8982 17.4186 44.082 16.4108 43.7152 15.8614C43.3488 15.312 41.426 15.4039 40.877 12.5646C40.3276 9.72605 41.518 9.45155 41.2435 7.89446C41.0483 6.78857 40.668 5.17301 40.4643 4.33129L40.4635 4.33442Z" fill="white"/>
</mask>
<g mask="url(#mask0_104_723)">
<g filter="url(#filter0_f_104_723)">
<path d="M32.5801 53.79C32.5801 53.79 37.3539 52.3589 39.6479 52.3667C43.9468 52.3809 48.0745 52.6562 50.6828 53.056C54.364 53.6196 55.3534 54.4 55.3534 54.4L32.5801 53.79Z" fill="#8B34B4" fill-opacity="0.5"/>
</g>
<path d="M44.321 22.4779C44.321 22.4779 45.3975 21.5808 49.5821 21.5214C53.7679 21.4616 55.8594 22.4779 55.8594 22.4779C55.8594 22.4779 52.1522 24.0923 49.2824 23.9126C46.4125 23.7333 44.3198 22.4779 44.3198 22.4779H44.321Z" fill="#F575CE"/>
<path d="M38.6671 28.9484C38.6671 28.9484 43.4166 26.9622 49.1518 27.0936C54.8874 27.2253 60.0586 29.4059 60.0586 29.4059C60.0586 29.4059 52.3539 32.7133 46.9704 32.1501C41.587 31.5872 38.4561 29.3359 38.4561 29.3359L38.6671 28.9484Z" fill="#F575CE"/>
<path d="M42.8535 37.3574C42.8535 37.3574 44.4367 35.95 47.6729 35.95C50.9092 35.95 52.7742 37.3574 52.7742 37.3574C52.7742 37.3574 50.2764 38.6941 47.1455 38.5189C44.0145 38.3436 42.8535 37.3574 42.8535 37.3574Z" fill="#F575CE"/>
<g style="mix-blend-mode:overlay" opacity="0.3" filter="url(#filter1_f_104_723)">
<path d="M51.4512 2.29346C52.6081 4.86562 53.8196 7.78342 54.9058 10.4056C55.2868 11.3112 55.6293 12.2425 55.9408 13.1803C56.567 15.055 56.9985 16.9838 57.3995 18.9167C57.9343 21.5727 58.3592 24.2563 58.587 26.9582C58.8322 30.1013 59.0079 33.3615 59.0278 36.5164C59.042 39.4636 58.9806 42.4253 58.541 45.3452C58.3852 46.3155 58.2006 47.2907 57.8456 48.2085L58.0022 47.4924C58.2055 46.2923 58.286 45.0654 58.3291 43.8527C58.4418 39.4627 58.1608 35.0724 57.8476 30.6946C57.7358 29.244 57.626 27.7715 57.4894 26.3221C57.1278 22.9374 56.5703 19.5715 55.8602 16.2425C55.4654 14.3377 54.9278 12.4829 54.2706 10.65C53.334 7.97451 52.3052 4.98884 51.452 2.29557L51.4512 2.29346Z" fill="#EDEDED"/>
</g>
<g style="mix-blend-mode:multiply" opacity="0.4">
<g filter="url(#filter2_f_104_723)">
<path d="M44.4114 15.5113C44.0019 20.8655 43.0425 26.1403 41.67 31.3229C41.0531 33.4713 40.7428 35.7092 40.5956 37.9556C40.2195 43.8787 41.3118 50.1227 46.3862 53.825C47.3426 54.5432 48.3821 55.1523 49.4325 55.7233C47.3825 55.74 45.3797 55.2325 43.5602 54.2459C37.7319 51.0597 35.8628 43.8442 36.4549 37.6441C36.6375 35.5799 37.0426 33.5632 37.7311 31.5966C39.8051 26.3668 41.9177 20.5446 44.4114 15.5101V15.5113Z" fill="#F575CE"/>
</g>
</g>
<g style="mix-blend-mode:multiply" opacity="0.4">
<g filter="url(#filter3_f_104_723)">
<path d="M41.2788 8.49908C41.5358 9.26248 41.5785 10.1189 41.6643 10.8895C41.8196 12.813 42.3296 13.7626 43.5992 15.1941C43.8403 15.4824 44.1693 15.8427 44.3938 16.1538C42.5593 16.371 40.6399 15.2327 40.0478 13.4483C39.4471 11.7053 40.1206 9.82974 41.2788 8.49908Z" fill="#F575CE"/>
</g>
</g>
<g style="mix-blend-mode:multiply" opacity="0.4">
<g filter="url(#filter4_f_104_723)">
<path d="M47.3129 42.0093C49.3983 43.7035 50.922 46.712 51.4023 49.3321C51.4694 49.7465 51.5296 50.1666 51.5194 50.6282C50.7935 50.1707 50.188 49.5481 49.6626 48.8885C48.2132 47.0125 47.1238 44.4135 47.3129 42.0093Z" fill="#F575CE"/>
</g>
</g>
</g>
<path d="M48.4874 51.3228C46.6765 48.644 44.9002 43.6961 43.2085 36.6157C40.9295 27.0757 35.2155 25.521 30.8279 25.898C29.956 25.972 29.2033 25.3319 29.1289 24.4673C29.0549 23.6023 29.6949 22.8423 30.5595 22.7678C33.5026 22.5153 36.2919 23.072 38.631 24.3754C42.3687 26.4575 44.9368 30.3298 46.2642 35.8857C47.5696 41.3484 48.9091 45.4586 50.2483 48.1052C51.167 49.921 52.2105 51.1877 52.4044 51.3228M51.5138 50.6322C51.5138 50.6322 51.5159 50.6322 51.5171 50.6322C51.5171 50.6322 51.5147 50.6322 51.5138 50.6322Z" fill="#FDC5EC"/>
<mask id="mask1_104_723" style="mask-type:luminance" maskUnits="userSpaceOnUse" x="29" y="22" width="25" height="32">
<path d="M48.4874 51.3203C46.6765 48.6416 44.9002 43.6937 43.2085 36.6132C40.9295 27.0732 35.2155 25.5185 30.8279 25.8955C29.956 25.9695 29.2033 25.3294 29.1289 24.4649C29.0549 23.5999 29.6949 22.8398 30.5595 22.7658C33.5026 22.5129 36.2919 23.0696 38.631 24.373C42.3687 26.4551 44.9368 30.3274 46.2642 35.8832C47.5696 41.346 48.9091 45.4566 50.2483 48.1028C51.167 49.9189 51.8022 50.4618 51.9974 50.5956C52.6594 50.653 53.2381 51.13 53.3935 51.8132C53.5858 52.6591 53.0551 53.5009 52.2092 53.6928C52.088 53.7201 51.9441 53.74 51.781 53.74C51.0218 53.74 49.8388 53.3179 48.4874 51.3203ZM51.5138 50.6298C51.5138 50.6298 51.5159 50.6298 51.5171 50.6298C51.5171 50.6298 51.5151 50.6298 51.5138 50.6298Z" fill="white"/>
</mask>
<g mask="url(#mask1_104_723)">
<g style="mix-blend-mode:multiply" opacity="0.4">
<g filter="url(#filter5_f_104_723)">
<path d="M45.6552 49.8055C44.3839 44.6469 43.1038 39.3867 40.9997 34.5295C39.2754 30.5673 36.508 26.2095 31.8253 25.7081C31.1726 25.6267 30.5012 25.6121 29.8159 25.632C31.116 25.1265 32.5532 24.9415 33.9533 25.1525C43.1143 26.7044 46.34 42.0024 45.6552 49.8055Z" fill="#F575CE"/>
</g>
</g>
</g>
</g>
<defs>
<filter id="filter0_f_104_723" x="30.9534" y="50.74" width="26.0268" height="5.28672" filterUnits="userSpaceOnUse" color-interpolation-filters="sRGB">
<feFlood flood-opacity="0" result="BackgroundImageFix"/>
<feBlend mode="normal" in="SourceGraphic" in2="BackgroundImageFix" result="shape"/>
<feGaussianBlur stdDeviation="0.813333" result="effect1_foregroundBlur_104_723"/>
</filter>
<filter id="filter1_f_104_723" x="50.4069" y="1.24915" width="9.66724" height="48.0037" filterUnits="userSpaceOnUse" color-interpolation-filters="sRGB">
<feFlood flood-opacity="0" result="BackgroundImageFix"/>
<feBlend mode="normal" in="SourceGraphic" in2="BackgroundImageFix" result="shape"/>
<feGaussianBlur stdDeviation="0.522156" result="effect1_foregroundBlur_104_723"/>
</filter>
<filter id="filter2_f_104_723" x="34.4708" y="13.6303" width="16.8416" height="43.9731" filterUnits="userSpaceOnUse" color-interpolation-filters="sRGB">
<feFlood flood-opacity="0" result="BackgroundImageFix"/>
<feBlend mode="normal" in="SourceGraphic" in2="BackgroundImageFix" result="shape"/>
<feGaussianBlur stdDeviation="0.93988" result="effect1_foregroundBlur_104_723"/>
</filter>
<filter id="filter3_f_104_723" x="38.5706" y="7.24591" width="7.07666" height="10.1876" filterUnits="userSpaceOnUse" color-interpolation-filters="sRGB">
<feFlood flood-opacity="0" result="BackgroundImageFix"/>
<feBlend mode="normal" in="SourceGraphic" in2="BackgroundImageFix" result="shape"/>
<feGaussianBlur stdDeviation="0.626588" result="effect1_foregroundBlur_104_723"/>
</filter>
<filter id="filter4_f_104_723" x="46.2472" y="40.965" width="6.31763" height="10.7075" filterUnits="userSpaceOnUse" color-interpolation-filters="sRGB">
<feFlood flood-opacity="0" result="BackgroundImageFix"/>
<feBlend mode="normal" in="SourceGraphic" in2="BackgroundImageFix" result="shape"/>
<feGaussianBlur stdDeviation="0.522156" result="effect1_foregroundBlur_104_723"/>
</filter>
<filter id="filter5_f_104_723" x="28.7716" y="24.0224" width="18.0164" height="26.8274" filterUnits="userSpaceOnUse" color-interpolation-filters="sRGB">
<feFlood flood-opacity="0" result="BackgroundImageFix"/>
<feBlend mode="normal" in="SourceGraphic" in2="BackgroundImageFix" result="shape"/>
<feGaussianBlur stdDeviation="0.522156" result="effect1_foregroundBlur_104_723"/>
</filter>
<radialGradient id="paint0_radial_104_723" cx="0" cy="0" r="1" gradientUnits="userSpaceOnUse" gradientTransform="translate(40.8865 52.1902) rotate(-179.955) scale(32.8723 6.55034)">
<stop offset="0.3119" stop-color="#CACACB"/>
<stop offset="0.8156" stop-color="#CFCFEB" stop-opacity="0"/>
</radialGradient>
<linearGradient id="paint1_linear_104_723" x1="53.8628" y1="47.7347" x2="62.0576" y2="51.9352" gradientUnits="userSpaceOnUse">
<stop stop-color="#FFF0FB"/>
<stop offset="0.76" stop-color="#FFCAEF"/>
</linearGradient>
<clipPath id="clip0_104_723">
<rect width="82" height="59" fill="white"/>
</clipPath>
</defs>
</svg>
