<svg width="23" height="24" viewBox="0 0 23 24" fill="none" xmlns="http://www.w3.org/2000/svg">
<path fill-rule="evenodd" clip-rule="evenodd" d="M14.3796 2.86979L11.4128 0L8.44596 2.86979L4.35957 2.29149L3.64596 6.35617L0 8.29149L1.81277 12L0 15.7072L3.64596 17.6426L4.35957 21.7072L8.44596 21.1302L11.4128 24L14.3796 21.1302L18.466 21.7072L19.1796 17.6426L22.8255 15.7072L21.0128 12L22.8255 8.29149L19.1796 6.35617L18.466 2.29149L14.3796 2.86979ZM5.32851 12.54L9.70468 16.9162L16.9596 8.99362L15.24 7.4017L9.62298 13.523L6.97787 10.8779L5.32851 12.54Z" fill="url(#paint0_linear_203_471)"/>
<path fill-rule="evenodd" clip-rule="evenodd" d="M14.0954 3.74431L11.4133 1.14899L8.73113 3.74431L5.03539 3.2209L4.39071 6.8975L1.09326 8.64643L2.73241 12.0001L1.09326 15.3537L4.39071 17.1026L5.03539 20.7792L8.73113 20.2558L11.4133 22.8511L14.0954 20.2558L17.7911 20.7792L18.4358 17.1026L21.7333 15.3537L20.0941 12.0001L21.7333 8.64643L18.4358 6.8975L17.7911 3.2209L14.0954 3.74431ZM5.32773 12.5401L9.70518 16.9162L16.9601 8.99367L15.2405 7.40175L9.62347 13.523L6.97837 10.8779L5.32773 12.5401Z" fill="url(#paint1_linear_203_471)"/>
<path fill-rule="evenodd" clip-rule="evenodd" d="M5.32756 12.5401L9.70501 16.9162L16.9178 9.03963L16.9663 8.9975L16.9599 10.7822L9.70501 18.7047L5.32756 14.3273L5.32373 12.5337L5.33011 12.5375L5.32756 12.5401Z" fill="#E37EC5"/>
<defs>
<linearGradient id="paint0_linear_203_471" x1="3.00128" y1="1.14255" x2="20.4549" y2="25.4145" gradientUnits="userSpaceOnUse">
<stop stop-color="#FFDDF5"/>
<stop offset="0.539" stop-color="#E37EC5"/>
<stop offset="0.68" stop-color="#E07BC2"/>
<stop offset="1" stop-color="#FFDDF5"/>
</linearGradient>
<linearGradient id="paint1_linear_203_471" x1="4.20688" y1="2.29154" x2="18.2571" y2="22.3826" gradientUnits="userSpaceOnUse">
<stop stop-color="#FFF0FB"/>
<stop offset="0.406" stop-color="#FFD4F2"/>
<stop offset="0.989" stop-color="#F4A3DC"/>
</linearGradient>
</defs>
</svg>
