<svg width="24" height="19" viewBox="0 0 24 19" fill="none" xmlns="http://www.w3.org/2000/svg">
<path fill-rule="evenodd" clip-rule="evenodd" d="M24 9.40541C24 5.13853 20.5675 1.67954 16.3333 1.67954H10C9.5091 0.684096 8.51124 0 7.33333 0C5.88251 0 4.67223 1.03782 4.39366 2.41695C4.39896 2.38574 4.38743 2.44783 4.39366 2.41695C4.36537 2.58371 4.33333 2.84828 4.33333 3.02317C4.33333 3.79742 4.62216 4.50369 5.09716 5.03853C5.64648 5.65707 6.4448 6.04633 7.33333 6.04633C8.51124 6.04633 9.53059 5.36224 10.0215 4.3668H16.3333C21.8312 4.3668 22.5599 12.3768 18.1652 14.1142C18.4818 14.5933 18.6663 15.1688 18.6663 15.7876C18.6663 16.1511 18.6027 16.4997 18.486 16.8225C21.6721 15.8849 24 12.919 24 9.40541ZM7.33333 4.7027C8.25381 4.7027 9 3.95075 9 3.02317C9 2.47376 8.73822 1.98596 8.3335 1.67954C8.05491 1.46862 7.70861 1.34363 7.33333 1.34363C6.87679 1.34363 6.46313 1.52861 6.16211 1.82825C5.85622 2.13275 5.66667 2.55565 5.66667 3.02317C5.66667 3.95075 6.41286 4.7027 7.33333 4.7027Z" fill="#FD1669"/>
<path fill-rule="evenodd" clip-rule="evenodd" d="M0 9.40541C0 13.6723 3.43248 17.1313 7.66667 17.1313L12.9621 17.0981C13.4465 18.1115 14.4754 18.8108 15.6663 18.8108C16.9625 18.8108 18.0666 17.9825 18.486 16.8225C18.6027 16.4997 18.6663 16.1511 18.6663 15.7876C18.6663 15.1688 18.4818 14.5933 18.1652 14.1142C17.6275 13.3006 16.7091 12.7645 15.6663 12.7645C14.4884 12.7645 13.4691 13.4486 12.9782 14.444H7.66634C2.61687 14.444 1.59033 7.68735 4.86123 5.23919C4.94382 5.17738 5.02295 5.11032 5.09716 5.03853C4.62216 4.50369 4.33333 3.79742 4.33333 3.02317C4.33333 2.84828 4.36537 2.58371 4.39366 2.41695C4.26007 2.48256 4.13776 2.54395 4.01822 2.60876C1.64356 3.90597 0.0251605 6.43011 0.000290647 9.33741C9.7014e-05 9.36005 0 9.38272 0 9.40541ZM15.6663 17.4672C16.5868 17.4672 17.333 16.7152 17.333 15.7876C17.333 14.8601 16.5868 14.1081 15.6663 14.1081C14.7459 14.1081 13.9997 14.8601 13.9997 15.7876C13.9997 16.7152 14.7459 17.4672 15.6663 17.4672Z" fill="#005FF7"/>
</svg>
