<svg width="132" height="132" viewBox="0 0 132 132" fill="none" xmlns="http://www.w3.org/2000/svg">
<path d="M118.241 13.7919C105.788 1.38651 87.8817 0 65.9999 0C44.0905 0 26.1571 1.4025 13.7089 13.8414C1.2625 26.2752 0 44.1797 0 66.0641C0 87.9521 1.26251 105.862 13.7141 118.3C26.1615 130.741 44.0928 132 65.9999 132C87.9072 132 105.835 130.741 118.283 118.3C130.734 105.86 132 87.9521 132 66.0641C132 44.1516 130.72 26.2277 118.241 13.7919Z" fill="#F2F2F2"/>
<path fill-rule="evenodd" clip-rule="evenodd" d="M82 80.73V88.8061C93.2851 87.3361 102 77.6858 102 66C102 53.2975 91.7025 43 79 43H60V51H79C96.4672 51 97.8881 77.744 82 80.73Z" fill="#FD1669"/>
<path fill-rule="evenodd" clip-rule="evenodd" d="M47 52.1922V43.7905C37.207 46.4296 30 55.3732 30 66C30 78.7025 40.2975 89 53 89H72V81H53C36.7199 81 34.3792 57.7678 47 52.1922Z" fill="#005FF7"/>
<path fill-rule="evenodd" clip-rule="evenodd" d="M77 94C81.9706 94 86 89.9706 86 85C86 80.0294 81.9706 76 77 76C72.0294 76 68 80.0294 68 85C68 89.9706 72.0294 94 77 94ZM77 90C79.7614 90 82 87.7614 82 85C82 82.2386 79.7614 80 77 80C74.2386 80 72 82.2386 72 85C72 87.7614 74.2386 90 77 90Z" fill="#005FF7"/>
<path fill-rule="evenodd" clip-rule="evenodd" d="M52 56C56.9706 56 61 51.9706 61 47C61 42.0294 56.9706 38 52 38C47.0294 38 43 42.0294 43 47C43 51.9706 47.0294 56 52 56ZM52 52C54.7614 52 57 49.7614 57 47C57 44.2386 54.7614 42 52 42C49.2386 42 47 44.2386 47 47C47 49.7614 49.2386 52 52 52Z" fill="#FD1669"/>
</svg>
